<svg width="16" height="17" viewBox="0 0 16 17" fill="none" xmlns="http://www.w3.org/2000/svg">
<path d="M6.00001 6.1001C5.89393 6.1001 5.79218 6.14224 5.71717 6.21726C5.64215 6.29227 5.60001 6.39401 5.60001 6.5001C5.60001 6.60618 5.64215 6.70793 5.71717 6.78294C5.79218 6.85795 5.89393 6.9001 6.00001 6.9001H10C10.1061 6.9001 10.2078 6.85795 10.2829 6.78294C10.3579 6.70793 10.4 6.60618 10.4 6.5001C10.4 6.39401 10.3579 6.29227 10.2829 6.21726C10.2078 6.14224 10.1061 6.1001 10 6.1001H6.00001ZM5.60001 8.9001C5.60001 8.79401 5.64215 8.69227 5.71717 8.61725C5.79218 8.54224 5.89393 8.5001 6.00001 8.5001H10C10.1061 8.5001 10.2078 8.54224 10.2829 8.61725C10.3579 8.69227 10.4 8.79401 10.4 8.9001C10.4 9.00618 10.3579 9.10793 10.2829 9.18294C10.2078 9.25796 10.1061 9.3001 10 9.3001H6.00001C5.89393 9.3001 5.79218 9.25796 5.71717 9.18294C5.64215 9.10793 5.60001 9.00618 5.60001 8.9001ZM6.00001 10.9001C5.89393 10.9001 5.79218 10.9422 5.71717 11.0173C5.64215 11.0923 5.60001 11.194 5.60001 11.3001C5.60001 11.4062 5.64215 11.5079 5.71717 11.5829C5.79218 11.658 5.89393 11.7001 6.00001 11.7001H7.60001C7.7061 11.7001 7.80784 11.658 7.88285 11.5829C7.95787 11.5079 8.00001 11.4062 8.00001 11.3001C8.00001 11.194 7.95787 11.0923 7.88285 11.0173C7.80784 10.9422 7.7061 10.9001 7.60001 10.9001H6.00001ZM5.20001 2.1001C5.09393 2.1001 4.99218 2.14224 4.91717 2.21726C4.84215 2.29227 4.80001 2.39401 4.80001 2.5001V2.9001H4.40001C4.08175 2.9001 3.77653 3.02653 3.55148 3.25157C3.32644 3.47661 3.20001 3.78184 3.20001 4.1001V13.7001C3.20001 14.0184 3.32644 14.3236 3.55148 14.5486C3.77653 14.7737 4.08175 14.9001 4.40001 14.9001H9.20001C9.25258 14.9002 9.30464 14.8899 9.35324 14.8699C9.40183 14.8498 9.446 14.8204 9.48321 14.7833L12.6832 11.5833C12.7203 11.5461 12.7498 11.5019 12.7698 11.4533C12.7898 11.4047 12.8001 11.3527 12.8 11.3001V4.1001C12.8 3.78184 12.6736 3.47661 12.4485 3.25157C12.2235 3.02653 11.9183 2.9001 11.6 2.9001H11.2V2.5001C11.2 2.39401 11.1579 2.29227 11.0829 2.21726C11.0078 2.14224 10.9061 2.1001 10.8 2.1001C10.6939 2.1001 10.5922 2.14224 10.5172 2.21726C10.4422 2.29227 10.4 2.39401 10.4 2.5001V2.9001H8.40001V2.5001C8.40001 2.39401 8.35787 2.29227 8.28286 2.21726C8.20784 2.14224 8.1061 2.1001 8.00001 2.1001C7.89393 2.1001 7.79218 2.14224 7.71717 2.21726C7.64215 2.29227 7.60001 2.39401 7.60001 2.5001V2.9001H5.60001V2.5001C5.60001 2.39401 5.55787 2.29227 5.48285 2.21726C5.40784 2.14224 5.3061 2.1001 5.20001 2.1001ZM11.6 3.7001C11.7061 3.7001 11.8078 3.74224 11.8829 3.81726C11.9579 3.89227 12 3.99401 12 4.1001V10.9001H10C9.68175 10.9001 9.37653 11.0265 9.15148 11.2516C8.92644 11.4766 8.80001 11.7818 8.80001 12.1001V14.1001H4.40001C4.29393 14.1001 4.19218 14.058 4.11717 13.9829C4.04215 13.9079 4.00001 13.8062 4.00001 13.7001V4.1001C4.00001 3.99401 4.04215 3.89227 4.11717 3.81726C4.19218 3.74224 4.29393 3.7001 4.40001 3.7001H11.6ZM11.4344 11.7001L9.60001 13.5345V12.1001C9.60001 11.994 9.64215 11.8923 9.71717 11.8173C9.79218 11.7422 9.89393 11.7001 10 11.7001H11.4344Z" fill="#B2B2B2"/>
</svg>
