<svg width="16" height="15" viewBox="0 0 16 15" fill="none" xmlns="http://www.w3.org/2000/svg">
<path d="M13.3531 4.22754L9.99063 1.0752C9.89688 0.987305 9.77031 0.9375 9.6375 0.9375H3C2.72344 0.9375 2.5 1.14697 2.5 1.40625V13.5938C2.5 13.853 2.72344 14.0625 3 14.0625H13C13.2766 14.0625 13.5 13.853 13.5 13.5938V4.56006C13.5 4.43555 13.4469 4.31543 13.3531 4.22754ZM12.3469 4.77539H9.40625V2.01855L12.3469 4.77539ZM12.375 13.0078H3.625V1.99219H8.34375V5.15625C8.34375 5.31942 8.41289 5.47591 8.53596 5.59129C8.65903 5.70667 8.82595 5.77148 9 5.77148H12.375V13.0078ZM8.5 6.91406C8.5 6.84961 8.44375 6.79688 8.375 6.79688H7.625C7.55625 6.79688 7.5 6.84961 7.5 6.91406V8.49609H5.8125C5.74375 8.49609 5.6875 8.54883 5.6875 8.61328V9.31641C5.6875 9.38086 5.74375 9.43359 5.8125 9.43359H7.5V11.0156C7.5 11.0801 7.55625 11.1328 7.625 11.1328H8.375C8.44375 11.1328 8.5 11.0801 8.5 11.0156V9.43359H10.1875C10.2562 9.43359 10.3125 9.38086 10.3125 9.31641V8.61328C10.3125 8.54883 10.2562 8.49609 10.1875 8.49609H8.5V6.91406Z" fill="#B2B2B2"/>
</svg>
