<svg width="20" height="20" viewBox="0 0 20 20" fill="none" xmlns="http://www.w3.org/2000/svg">
<path d="M18.3333 7.10033V3.31699C18.3333 2.14199 17.8 1.66699 16.475 1.66699H13.1083C11.7833 1.66699 11.25 2.14199 11.25 3.31699V7.09199C11.25 8.27533 11.7833 8.74199 13.1083 8.74199H16.475C17.8 8.75032 18.3333 8.27533 18.3333 7.10033Z" fill="#B2B2B2"/>
<path d="M18.3333 16.475V13.1083C18.3333 11.7833 17.8 11.25 16.475 11.25H13.1083C11.7833 11.25 11.25 11.7833 11.25 13.1083V16.475C11.25 17.8 11.7833 18.3333 13.1083 18.3333H16.475C17.8 18.3333 18.3333 17.8 18.3333 16.475Z" fill="#B2B2B2"/>
<path d="M8.75008 7.10033V3.31699C8.75008 2.14199 8.21675 1.66699 6.89175 1.66699H3.52508C2.20008 1.66699 1.66675 2.14199 1.66675 3.31699V7.09199C1.66675 8.27533 2.20008 8.74199 3.52508 8.74199H6.89175C8.21675 8.75032 8.75008 8.27533 8.75008 7.10033Z" fill="#B2B2B2"/>
<path d="M8.75002 16.475V13.1083C8.75002 11.7833 8.21669 11.25 6.89169 11.25H3.52502C2.20002 11.25 1.66669 11.7833 1.66669 13.1083V16.475C1.66669 17.8 2.20002 18.3333 3.52502 18.3333H6.89169C8.21669 18.3333 8.75002 17.8 8.75002 16.475Z" fill="#B2B2B2"/>
</svg>
