<svg width="16" height="17" viewBox="0 0 16 17" fill="none" xmlns="http://www.w3.org/2000/svg">
<path d="M14 3.16675H1.99998C1.82317 3.16675 1.6536 3.23699 1.52858 3.36201C1.40355 3.48703 1.33331 3.6566 1.33331 3.83341V13.1667C1.33331 13.3436 1.40355 13.5131 1.52858 13.6382C1.6536 13.7632 1.82317 13.8334 1.99998 13.8334H14C14.1768 13.8334 14.3464 13.7632 14.4714 13.6382C14.5964 13.5131 14.6666 13.3436 14.6666 13.1667V3.83341C14.6666 3.6566 14.5964 3.48703 14.4714 3.36201C14.3464 3.23699 14.1768 3.16675 14 3.16675ZM13.3333 10.5001C12.8029 10.5001 12.2942 10.7108 11.9191 11.0859C11.544 11.4609 11.3333 11.9696 11.3333 12.5001H4.66665C4.66665 11.9696 4.45593 11.4609 4.08086 11.0859C3.70579 10.7108 3.19708 10.5001 2.66665 10.5001V6.50008C3.19708 6.50008 3.70579 6.28937 4.08086 5.9143C4.45593 5.53922 4.66665 5.03051 4.66665 4.50008H11.3333C11.3333 5.03051 11.544 5.53922 11.9191 5.9143C12.2942 6.28937 12.8029 6.50008 13.3333 6.50008V10.5001Z" fill="#B2B2B2"/>
<path d="M7.99998 5.83325C6.52931 5.83325 5.33331 7.02925 5.33331 8.49992C5.33331 9.97059 6.52931 11.1666 7.99998 11.1666C9.47065 11.1666 10.6666 9.97059 10.6666 8.49992C10.6666 7.02925 9.47065 5.83325 7.99998 5.83325ZM7.99998 9.83325C7.26465 9.83325 6.66665 9.23525 6.66665 8.49992C6.66665 7.76459 7.26465 7.16659 7.99998 7.16659C8.73531 7.16659 9.33331 7.76459 9.33331 8.49992C9.33331 9.23525 8.73531 9.83325 7.99998 9.83325Z" fill="#B2B2B2"/>
</svg>
