<svg width="16" height="17" viewBox="0 0 16 17" fill="none" xmlns="http://www.w3.org/2000/svg">
<path d="M14.1187 4.14364L8.11874 2.14364C8.04152 2.11879 7.95846 2.11879 7.88124 2.14364L1.88749 4.14364H1.87499L1.83124 4.16864H1.82499L1.78124 4.19364C1.78124 4.1953 1.78058 4.19689 1.77941 4.19806C1.77824 4.19924 1.77665 4.19989 1.77499 4.19989L1.73124 4.23739L1.69999 4.27489C1.69999 4.27655 1.69933 4.27814 1.69816 4.27931C1.69699 4.28049 1.6954 4.28114 1.69374 4.28114L1.66874 4.32489C1.66874 4.33114 1.66249 4.33114 1.66249 4.33739L1.64374 4.38114C1.63596 4.39669 1.6317 4.41376 1.63124 4.43114C1.62612 4.44943 1.62401 4.46843 1.62499 4.48739V9.48739C1.62499 9.58685 1.6645 9.68223 1.73483 9.75256C1.80515 9.82289 1.90053 9.86239 1.99999 9.86239C2.09945 9.86239 2.19483 9.82289 2.26516 9.75256C2.33548 9.68223 2.37499 9.58685 2.37499 9.48739V5.01864L4.79374 5.82489C4.35606 6.46561 4.12289 7.22396 4.12499 7.99989C4.12544 8.70031 4.31572 9.3875 4.67559 9.98839C5.03547 10.5893 5.55148 11.0814 6.16874 11.4124C4.89667 11.8312 3.80539 12.6711 3.07499 13.7936C3.04791 13.8351 3.02925 13.8815 3.02009 13.9301C3.01093 13.9788 3.01144 14.0288 3.02159 14.0772C3.03175 14.1257 3.05135 14.1717 3.07928 14.2126C3.10721 14.2535 3.14292 14.2884 3.18437 14.3155C3.22581 14.3426 3.27219 14.3613 3.32085 14.3704C3.36951 14.3796 3.41949 14.3791 3.46796 14.3689C3.51642 14.3588 3.5624 14.3392 3.60329 14.3112C3.64417 14.2833 3.67916 14.2476 3.70624 14.2061C4.17081 13.4903 4.80698 12.902 5.55688 12.4947C6.30678 12.0874 7.14662 11.874 7.99999 11.874C8.85336 11.874 9.6932 12.0874 10.4431 12.4947C11.193 12.902 11.8292 13.4903 12.2937 14.2061C12.3296 14.2576 12.3772 14.2998 12.4327 14.3292C12.4881 14.3585 12.5498 14.3742 12.6125 14.3749C12.684 14.3754 12.754 14.3535 12.8125 14.3124C12.854 14.2858 12.8898 14.2512 12.9179 14.2107C12.946 14.1702 12.9659 14.1245 12.9763 14.0763C12.9868 14.0282 12.9876 13.9784 12.9788 13.9299C12.97 13.8814 12.9517 13.8351 12.925 13.7936C12.1946 12.6711 11.1033 11.8312 9.83124 11.4124C10.4485 11.0814 10.9645 10.5893 11.3244 9.98839C11.6843 9.3875 11.8745 8.70031 11.875 7.99989C11.8771 7.22396 11.6439 6.46561 11.2062 5.82489L14.1187 4.85614C14.1938 4.83148 14.2591 4.78377 14.3054 4.7198C14.3517 4.65583 14.3766 4.57887 14.3766 4.49989C14.3766 4.42092 14.3517 4.34396 14.3054 4.27999C14.2591 4.21602 14.1938 4.1683 14.1187 4.14364ZM11.125 7.99989C11.1248 8.49762 11.0058 8.98811 10.7778 9.43053C10.5497 9.87295 10.2193 10.2545 9.81406 10.5434C9.40878 10.8324 8.94035 11.0203 8.44776 11.0916C7.95517 11.163 7.45267 11.1156 6.98208 10.9535C6.5115 10.7913 6.08645 10.5191 5.74232 10.1596C5.39818 9.79997 5.14491 9.36339 5.0036 8.88614C4.86228 8.4089 4.837 7.90481 4.92987 7.41582C5.02273 6.92683 5.23105 6.4671 5.53749 6.07489L7.88124 6.85614C7.95846 6.881 8.04152 6.881 8.11874 6.85614L10.4625 6.07489C10.8903 6.62555 11.1233 7.30259 11.125 7.99989ZM10.4562 5.28739L7.99999 6.10614L5.54374 5.28739L3.18749 4.49989L7.99999 2.89364L12.8125 4.49989L10.4562 5.28739Z" fill="#C4C4C4"/>
</svg>
