<svg width="13" height="13" viewBox="0 0 13 13" fill="none" xmlns="http://www.w3.org/2000/svg">
<path d="M0.0135827 9.7198L0 12.3684C0 12.5178 0.0543308 12.6672 0.162992 12.7759C0.271654 12.8846 0.407481 12.9389 0.556891 12.9389L3.19194 12.9253C3.34134 12.9253 3.47717 12.871 3.58583 12.7623L12.6862 3.66192C12.9036 3.44459 12.9036 3.09144 12.6862 2.86054L10.0784 0.225492C9.86104 0.0081692 9.50789 0.0081692 9.27699 0.225492L7.4569 2.05916L0.176575 9.3259C0.0814962 9.43456 0.0135827 9.57039 0.0135827 9.7198ZM9.68447 1.42077L11.5181 3.25443L10.4858 4.28672L8.65218 2.45305L9.68447 1.42077ZM1.14095 9.96429L7.8508 3.25443L9.68447 5.0881L2.97461 11.7844L1.12736 11.798L1.14095 9.96429Z" fill="#8D8D8D"/>
</svg>
