<svg width="47" height="47" viewBox="0 0 47 47" fill="none" xmlns="http://www.w3.org/2000/svg">
<circle cx="23.4565" cy="23.4995" r="23.4565" fill="#D5FBE9"/>
<path d="M15.7656 29.75H32.75V11.75H15.7188C14.9653 11.7524 14.2434 12.0528 13.7106 12.5856C13.1778 13.1184 12.8774 13.8403 12.875 14.5938V31.168H12.8755C12.8755 31.175 12.875 31.182 12.875 31.1892C12.875 32.8486 14.1773 34.2501 15.7188 34.2501H32.75V32.75H15.7188C15.0155 32.75 14.375 32.006 14.375 31.1891C14.375 30.4091 15.0118 29.75 15.7656 29.75ZM27.875 13.2656V21.3664L25.6063 19.3746L23.375 21.3547V13.2656H27.875ZM21.875 13.25V23.375H23.3582L25.6117 21.3754L27.8893 23.375H29.375V13.25H31.25V28.25H17.3787L17.375 13.25H21.875ZM15.7188 13.25H15.875L15.8786 28.25H15.7655C15.2777 28.2501 14.7984 28.3775 14.375 28.6195V14.6055C14.3739 14.2477 14.5147 13.904 14.7666 13.6499C15.0185 13.3958 15.3609 13.252 15.7188 13.25Z" fill="white"/>
<path d="M15.7656 29.75H32.75V11.75H15.7188C14.9653 11.7524 14.2434 12.0528 13.7106 12.5856C13.1778 13.1184 12.8774 13.8403 12.875 14.5938V31.168H12.8755C12.8755 31.175 12.875 31.182 12.875 31.1892C12.875 32.8486 14.1773 34.2501 15.7188 34.2501H32.75V32.75H15.7188C15.0155 32.75 14.375 32.006 14.375 31.1891C14.375 30.4091 15.0118 29.75 15.7656 29.75ZM27.875 13.2656V21.3664L25.6063 19.3746L23.375 21.3547V13.2656H27.875ZM21.875 13.25V23.375H23.3582L25.6117 21.3754L27.8893 23.375H29.375V13.25H31.25V28.25H17.3787L17.375 13.25H21.875ZM15.7188 13.25H15.875L15.8786 28.25H15.7655C15.2777 28.2501 14.7984 28.3775 14.375 28.6195V14.6055C14.3739 14.2477 14.5147 13.904 14.7666 13.6499C15.0185 13.3958 15.3609 13.252 15.7188 13.25Z" fill="#21B873"/>
</svg>
