<svg width="20" height="18" viewBox="0 0 20 18" fill="none" xmlns="http://www.w3.org/2000/svg">
<path d="M6.51009 16.9995H6.43009C4.81845 16.9854 3.23012 16.6131 1.78009 15.9095C1.51336 15.7842 1.29375 15.5769 1.1534 15.3177C1.01304 15.0586 0.959318 14.7614 1.00009 14.4695C1.04444 14.1757 1.18048 13.9034 1.3888 13.6915C1.59712 13.4796 1.86706 13.3389 2.16009 13.2895C3.0587 13.1696 3.92318 12.8667 4.70009 12.3995C3.35125 11.345 2.31284 9.94511 1.69491 8.34834C1.07698 6.75157 0.902543 5.01738 1.19009 3.32953C1.22908 3.06218 1.34406 2.81167 1.52134 2.60779C1.69862 2.40392 1.93075 2.25527 2.19009 2.17953C2.44241 2.10029 2.71244 2.09691 2.96666 2.16979C3.22088 2.24268 3.4481 2.38864 3.62009 2.58953C4.20409 3.35532 4.93799 3.99409 5.777 4.4669C6.61601 4.9397 7.54255 5.23662 8.50009 5.33953C8.54583 4.16139 9.05213 3.04825 9.91009 2.23953C10.3385 1.82931 10.8443 1.50844 11.3979 1.29564C11.9516 1.08284 12.542 0.98235 13.1349 1.00003C13.7278 1.01772 14.3112 1.15322 14.8512 1.39864C15.3912 1.64407 15.8769 1.9945 16.2801 2.42953C16.3851 2.5224 16.5156 2.58158 16.6547 2.59941C16.7938 2.61724 16.935 2.5929 17.0601 2.52953C17.2985 2.41708 17.564 2.37475 17.8256 2.40748C18.0872 2.44021 18.3341 2.54665 18.5374 2.71438C18.7408 2.88211 18.8923 3.10422 18.9742 3.35479C19.0561 3.60536 19.0651 3.87406 19.0001 4.12953C18.7694 5.07965 18.3324 5.96733 17.7201 6.72953C17.5851 9.57428 16.331 12.2503 14.231 14.1741C12.1311 16.098 9.35576 17.1136 6.51009 16.9995ZM6.51009 14.9995H6.59009C7.75276 15.0395 8.9118 14.8483 10 14.437C11.0882 14.0257 12.084 13.4025 12.9295 12.6034C13.7751 11.8044 14.4536 10.8455 14.9257 9.78222C15.3979 8.71899 15.6543 7.5726 15.6801 6.40953C15.6966 6.09078 15.828 5.78882 16.0501 5.55953C16.294 5.25078 16.502 4.91529 16.6701 4.55953C16.3098 4.56022 15.9535 4.48486 15.6244 4.33839C15.2952 4.19192 15.0007 3.97763 14.7601 3.70953C14.5287 3.48009 14.2538 3.29911 13.9516 3.1772C13.6494 3.05528 13.3259 2.99488 13.0001 2.99953C12.671 2.99102 12.3435 3.0476 12.0363 3.16601C11.7291 3.28441 11.4483 3.46233 11.2101 3.68953C10.8887 3.99453 10.653 4.3786 10.5266 4.8033C10.4003 5.228 10.3877 5.67843 10.4901 6.10953L10.7501 7.24953L9.58009 7.32953C8.38119 7.4273 7.17535 7.2633 6.04611 6.84889C4.91686 6.43449 3.89118 5.77959 3.04009 4.92953C3.00359 6.24593 3.33289 7.54666 3.99139 8.6871C4.64988 9.82755 5.61176 10.763 6.77009 11.3895L7.72009 11.9295L7.09009 12.8295C6.40878 13.7231 5.47528 14.3918 4.41009 14.7495C5.0934 14.9208 5.79566 15.0048 6.50009 14.9995H6.51009Z" fill="white"/>
<path d="M6.51009 16.9995H6.43009C4.81845 16.9854 3.23012 16.6131 1.78009 15.9095C1.51336 15.7842 1.29375 15.5769 1.1534 15.3177C1.01304 15.0586 0.959318 14.7614 1.00009 14.4695C1.04444 14.1757 1.18048 13.9034 1.3888 13.6915C1.59712 13.4796 1.86706 13.3389 2.16009 13.2895C3.0587 13.1696 3.92318 12.8667 4.70009 12.3995C3.35125 11.345 2.31284 9.94511 1.69491 8.34834C1.07698 6.75157 0.902543 5.01738 1.19009 3.32953C1.22908 3.06218 1.34406 2.81167 1.52134 2.60779C1.69862 2.40392 1.93075 2.25527 2.19009 2.17953C2.44241 2.10029 2.71244 2.09691 2.96666 2.16979C3.22088 2.24268 3.4481 2.38864 3.62009 2.58953C4.20409 3.35532 4.93799 3.99409 5.777 4.4669C6.61601 4.9397 7.54255 5.23662 8.50009 5.33953C8.54583 4.16139 9.05213 3.04825 9.91009 2.23953C10.3385 1.82931 10.8443 1.50844 11.3979 1.29564C11.9516 1.08284 12.542 0.98235 13.1349 1.00003C13.7278 1.01772 14.3112 1.15322 14.8512 1.39864C15.3912 1.64407 15.8769 1.9945 16.2801 2.42953C16.3851 2.5224 16.5156 2.58158 16.6547 2.59941C16.7938 2.61724 16.935 2.5929 17.0601 2.52953C17.2985 2.41708 17.564 2.37475 17.8256 2.40748C18.0872 2.44021 18.3341 2.54665 18.5374 2.71438C18.7408 2.88211 18.8923 3.10422 18.9742 3.35479C19.0561 3.60536 19.0651 3.87406 19.0001 4.12953C18.7694 5.07965 18.3324 5.96733 17.7201 6.72953C17.5851 9.57428 16.331 12.2503 14.231 14.1741C12.1311 16.098 9.35576 17.1136 6.51009 16.9995ZM6.51009 14.9995H6.59009C7.75276 15.0395 8.9118 14.8483 10 14.437C11.0882 14.0257 12.084 13.4025 12.9295 12.6034C13.7751 11.8044 14.4536 10.8455 14.9257 9.78222C15.3979 8.71899 15.6543 7.5726 15.6801 6.40953C15.6966 6.09078 15.828 5.78882 16.0501 5.55953C16.294 5.25078 16.502 4.91529 16.6701 4.55953C16.3098 4.56022 15.9535 4.48486 15.6244 4.33839C15.2952 4.19192 15.0007 3.97763 14.7601 3.70953C14.5287 3.48009 14.2538 3.29911 13.9516 3.1772C13.6494 3.05528 13.3259 2.99488 13.0001 2.99953C12.671 2.99102 12.3435 3.0476 12.0363 3.16601C11.7291 3.28441 11.4483 3.46233 11.2101 3.68953C10.8887 3.99453 10.653 4.3786 10.5266 4.8033C10.4003 5.228 10.3877 5.67843 10.4901 6.10953L10.7501 7.24953L9.58009 7.32953C8.38119 7.4273 7.17535 7.2633 6.04611 6.84889C4.91686 6.43449 3.89118 5.77959 3.04009 4.92953C3.00359 6.24593 3.33289 7.54666 3.99139 8.6871C4.64988 9.82755 5.61176 10.763 6.77009 11.3895L7.72009 11.9295L7.09009 12.8295C6.40878 13.7231 5.47528 14.3918 4.41009 14.7495C5.0934 14.9208 5.79566 15.0048 6.50009 14.9995H6.51009Z" fill="#21B873"/>
</svg>
