<svg width="405" height="202" viewBox="0 0 405 202" fill="none" xmlns="http://www.w3.org/2000/svg">
<path d="M10.7109 156.605C10.7109 156.254 10.6562 155.941 10.5469 155.668C10.4453 155.395 10.2617 155.145 9.99609 154.918C9.73047 154.691 9.35547 154.473 8.87109 154.262C8.39453 154.043 7.78516 153.82 7.04297 153.594C6.23047 153.344 5.48047 153.066 4.79297 152.762C4.11328 152.449 3.51953 152.09 3.01172 151.684C2.50391 151.27 2.10938 150.797 1.82812 150.266C1.54688 149.727 1.40625 149.105 1.40625 148.402C1.40625 147.707 1.55078 147.074 1.83984 146.504C2.13672 145.934 2.55469 145.441 3.09375 145.027C3.64062 144.605 4.28516 144.281 5.02734 144.055C5.76953 143.82 6.58984 143.703 7.48828 143.703C8.75391 143.703 9.84375 143.938 10.7578 144.406C11.6797 144.875 12.3867 145.504 12.8789 146.293C13.3789 147.082 13.6289 147.953 13.6289 148.906H10.7109C10.7109 148.344 10.5898 147.848 10.3477 147.418C10.1133 146.98 9.75391 146.637 9.26953 146.387C8.79297 146.137 8.1875 146.012 7.45312 146.012C6.75781 146.012 6.17969 146.117 5.71875 146.328C5.25781 146.539 4.91406 146.824 4.6875 147.184C4.46094 147.543 4.34766 147.949 4.34766 148.402C4.34766 148.723 4.42188 149.016 4.57031 149.281C4.71875 149.539 4.94531 149.781 5.25 150.008C5.55469 150.227 5.9375 150.434 6.39844 150.629C6.85938 150.824 7.40234 151.012 8.02734 151.191C8.97266 151.473 9.79688 151.785 10.5 152.129C11.2031 152.465 11.7891 152.848 12.2578 153.277C12.7266 153.707 13.0781 154.195 13.3125 154.742C13.5469 155.281 13.6641 155.895 13.6641 156.582C13.6641 157.301 13.5195 157.949 13.2305 158.527C12.9414 159.098 12.5273 159.586 11.9883 159.992C11.457 160.391 10.8164 160.699 10.0664 160.918C9.32422 161.129 8.49609 161.234 7.58203 161.234C6.76172 161.234 5.95312 161.125 5.15625 160.906C4.36719 160.688 3.64844 160.355 3 159.91C2.35156 159.457 1.83594 158.895 1.45312 158.223C1.07031 157.543 0.878906 156.75 0.878906 155.844H3.82031C3.82031 156.398 3.91406 156.871 4.10156 157.262C4.29688 157.652 4.56641 157.973 4.91016 158.223C5.25391 158.465 5.65234 158.645 6.10547 158.762C6.56641 158.879 7.05859 158.938 7.58203 158.938C8.26953 158.938 8.84375 158.84 9.30469 158.645C9.77344 158.449 10.125 158.176 10.3594 157.824C10.5938 157.473 10.7109 157.066 10.7109 156.605ZM23.6133 158.012V148.32H26.4492V161H23.7773L23.6133 158.012ZM24.0117 155.375L24.9609 155.352C24.9609 156.203 24.8672 156.988 24.6797 157.707C24.4922 158.418 24.2031 159.039 23.8125 159.57C23.4219 160.094 22.9219 160.504 22.3125 160.801C21.7031 161.09 20.9727 161.234 20.1211 161.234C19.5039 161.234 18.9375 161.145 18.4219 160.965C17.9062 160.785 17.4609 160.508 17.0859 160.133C16.7188 159.758 16.4336 159.27 16.2305 158.668C16.0273 158.066 15.9258 157.348 15.9258 156.512V148.32H18.75V156.535C18.75 156.996 18.8047 157.383 18.9141 157.695C19.0234 158 19.1719 158.246 19.3594 158.434C19.5469 158.621 19.7656 158.754 20.0156 158.832C20.2656 158.91 20.5312 158.949 20.8125 158.949C21.6172 158.949 22.25 158.793 22.7109 158.48C23.1797 158.16 23.5117 157.73 23.707 157.191C23.9102 156.652 24.0117 156.047 24.0117 155.375ZM34.5234 158.984C34.9844 158.984 35.3984 158.895 35.7656 158.715C36.1406 158.527 36.4414 158.27 36.668 157.941C36.9023 157.613 37.0312 157.234 37.0547 156.805H39.7148C39.6992 157.625 39.457 158.371 38.9883 159.043C38.5195 159.715 37.8984 160.25 37.125 160.648C36.3516 161.039 35.4961 161.234 34.5586 161.234C33.5898 161.234 32.7461 161.07 32.0273 160.742C31.3086 160.406 30.7109 159.945 30.2344 159.359C29.7578 158.773 29.3984 158.098 29.1562 157.332C28.9219 156.566 28.8047 155.746 28.8047 154.871V154.461C28.8047 153.586 28.9219 152.766 29.1562 152C29.3984 151.227 29.7578 150.547 30.2344 149.961C30.7109 149.375 31.3086 148.918 32.0273 148.59C32.7461 148.254 33.5859 148.086 34.5469 148.086C35.5625 148.086 36.4531 148.289 37.2188 148.695C37.9844 149.094 38.5859 149.652 39.0234 150.371C39.4688 151.082 39.6992 151.91 39.7148 152.855H37.0547C37.0312 152.387 36.9141 151.965 36.7031 151.59C36.5 151.207 36.2109 150.902 35.8359 150.676C35.4688 150.449 35.0273 150.336 34.5117 150.336C33.9414 150.336 33.4688 150.453 33.0938 150.688C32.7188 150.914 32.4258 151.227 32.2148 151.625C32.0039 152.016 31.8516 152.457 31.7578 152.949C31.6719 153.434 31.6289 153.938 31.6289 154.461V154.871C31.6289 155.395 31.6719 155.902 31.7578 156.395C31.8438 156.887 31.9922 157.328 32.2031 157.719C32.4219 158.102 32.7188 158.41 33.0938 158.645C33.4688 158.871 33.9453 158.984 34.5234 158.984ZM47.0625 158.984C47.5234 158.984 47.9375 158.895 48.3047 158.715C48.6797 158.527 48.9805 158.27 49.207 157.941C49.4414 157.613 49.5703 157.234 49.5938 156.805H52.2539C52.2383 157.625 51.9961 158.371 51.5273 159.043C51.0586 159.715 50.4375 160.25 49.6641 160.648C48.8906 161.039 48.0352 161.234 47.0977 161.234C46.1289 161.234 45.2852 161.07 44.5664 160.742C43.8477 160.406 43.25 159.945 42.7734 159.359C42.2969 158.773 41.9375 158.098 41.6953 157.332C41.4609 156.566 41.3438 155.746 41.3438 154.871V154.461C41.3438 153.586 41.4609 152.766 41.6953 152C41.9375 151.227 42.2969 150.547 42.7734 149.961C43.25 149.375 43.8477 148.918 44.5664 148.59C45.2852 148.254 46.125 148.086 47.0859 148.086C48.1016 148.086 48.9922 148.289 49.7578 148.695C50.5234 149.094 51.125 149.652 51.5625 150.371C52.0078 151.082 52.2383 151.91 52.2539 152.855H49.5938C49.5703 152.387 49.4531 151.965 49.2422 151.59C49.0391 151.207 48.75 150.902 48.375 150.676C48.0078 150.449 47.5664 150.336 47.0508 150.336C46.4805 150.336 46.0078 150.453 45.6328 150.688C45.2578 150.914 44.9648 151.227 44.7539 151.625C44.543 152.016 44.3906 152.457 44.2969 152.949C44.2109 153.434 44.168 153.938 44.168 154.461V154.871C44.168 155.395 44.2109 155.902 44.2969 156.395C44.3828 156.887 44.5312 157.328 44.7422 157.719C44.9609 158.102 45.2578 158.41 45.6328 158.645C46.0078 158.871 46.4844 158.984 47.0625 158.984ZM60.0117 161.234C59.0742 161.234 58.2266 161.082 57.4688 160.777C56.7188 160.465 56.0781 160.031 55.5469 159.477C55.0234 158.922 54.6211 158.27 54.3398 157.52C54.0586 156.77 53.918 155.961 53.918 155.094V154.625C53.918 153.633 54.0625 152.734 54.3516 151.93C54.6406 151.125 55.043 150.438 55.5586 149.867C56.0742 149.289 56.6836 148.848 57.3867 148.543C58.0898 148.238 58.8516 148.086 59.6719 148.086C60.5781 148.086 61.3711 148.238 62.0508 148.543C62.7305 148.848 63.293 149.277 63.7383 149.832C64.1914 150.379 64.5273 151.031 64.7461 151.789C64.9727 152.547 65.0859 153.383 65.0859 154.297V155.504H55.2891V153.477H62.2969V153.254C62.2812 152.746 62.1797 152.27 61.9922 151.824C61.8125 151.379 61.5352 151.02 61.1602 150.746C60.7852 150.473 60.2852 150.336 59.6602 150.336C59.1914 150.336 58.7734 150.438 58.4062 150.641C58.0469 150.836 57.7461 151.121 57.5039 151.496C57.2617 151.871 57.0742 152.324 56.9414 152.855C56.8164 153.379 56.7539 153.969 56.7539 154.625V155.094C56.7539 155.648 56.8281 156.164 56.9766 156.641C57.1328 157.109 57.3594 157.52 57.6562 157.871C57.9531 158.223 58.3125 158.5 58.7344 158.703C59.1562 158.898 59.6367 158.996 60.1758 158.996C60.8555 158.996 61.4609 158.859 61.9922 158.586C62.5234 158.312 62.9844 157.926 63.375 157.426L64.8633 158.867C64.5898 159.266 64.2344 159.648 63.7969 160.016C63.3594 160.375 62.8242 160.668 62.1914 160.895C61.5664 161.121 60.8398 161.234 60.0117 161.234ZM74.4023 157.566C74.4023 157.285 74.332 157.031 74.1914 156.805C74.0508 156.57 73.7812 156.359 73.3828 156.172C72.9922 155.984 72.4141 155.812 71.6484 155.656C70.9766 155.508 70.3594 155.332 69.7969 155.129C69.2422 154.918 68.7656 154.664 68.3672 154.367C67.9688 154.07 67.6602 153.719 67.4414 153.312C67.2227 152.906 67.1133 152.438 67.1133 151.906C67.1133 151.391 67.2266 150.902 67.4531 150.441C67.6797 149.98 68.0039 149.574 68.4258 149.223C68.8477 148.871 69.3594 148.594 69.9609 148.391C70.5703 148.188 71.25 148.086 72 148.086C73.0625 148.086 73.9727 148.266 74.7305 148.625C75.4961 148.977 76.082 149.457 76.4883 150.066C76.8945 150.668 77.0977 151.348 77.0977 152.105H74.2734C74.2734 151.77 74.1875 151.457 74.0156 151.168C73.8516 150.871 73.6016 150.633 73.2656 150.453C72.9297 150.266 72.5078 150.172 72 150.172C71.5156 150.172 71.1133 150.25 70.793 150.406C70.4805 150.555 70.2461 150.75 70.0898 150.992C69.9414 151.234 69.8672 151.5 69.8672 151.789C69.8672 152 69.9062 152.191 69.9844 152.363C70.0703 152.527 70.2109 152.68 70.4062 152.82C70.6016 152.953 70.8672 153.078 71.2031 153.195C71.5469 153.312 71.9766 153.426 72.4922 153.535C73.4609 153.738 74.293 154 74.9883 154.32C75.6914 154.633 76.2305 155.039 76.6055 155.539C76.9805 156.031 77.168 156.656 77.168 157.414C77.168 157.977 77.0469 158.492 76.8047 158.961C76.5703 159.422 76.2266 159.824 75.7734 160.168C75.3203 160.504 74.7773 160.766 74.1445 160.953C73.5195 161.141 72.8164 161.234 72.0352 161.234C70.8867 161.234 69.9141 161.031 69.1172 160.625C68.3203 160.211 67.7148 159.684 67.3008 159.043C66.8945 158.395 66.6914 157.723 66.6914 157.027H69.4219C69.4531 157.551 69.5977 157.969 69.8555 158.281C70.1211 158.586 70.4492 158.809 70.8398 158.949C71.2383 159.082 71.6484 159.148 72.0703 159.148C72.5781 159.148 73.0039 159.082 73.3477 158.949C73.6914 158.809 73.9531 158.621 74.1328 158.387C74.3125 158.145 74.4023 157.871 74.4023 157.566ZM86.7539 157.566C86.7539 157.285 86.6836 157.031 86.543 156.805C86.4023 156.57 86.1328 156.359 85.7344 156.172C85.3438 155.984 84.7656 155.812 84 155.656C83.3281 155.508 82.7109 155.332 82.1484 155.129C81.5938 154.918 81.1172 154.664 80.7188 154.367C80.3203 154.07 80.0117 153.719 79.793 153.312C79.5742 152.906 79.4648 152.438 79.4648 151.906C79.4648 151.391 79.5781 150.902 79.8047 150.441C80.0312 149.98 80.3555 149.574 80.7773 149.223C81.1992 148.871 81.7109 148.594 82.3125 148.391C82.9219 148.188 83.6016 148.086 84.3516 148.086C85.4141 148.086 86.3242 148.266 87.082 148.625C87.8477 148.977 88.4336 149.457 88.8398 150.066C89.2461 150.668 89.4492 151.348 89.4492 152.105H86.625C86.625 151.77 86.5391 151.457 86.3672 151.168C86.2031 150.871 85.9531 150.633 85.6172 150.453C85.2812 150.266 84.8594 150.172 84.3516 150.172C83.8672 150.172 83.4648 150.25 83.1445 150.406C82.832 150.555 82.5977 150.75 82.4414 150.992C82.293 151.234 82.2188 151.5 82.2188 151.789C82.2188 152 82.2578 152.191 82.3359 152.363C82.4219 152.527 82.5625 152.68 82.7578 152.82C82.9531 152.953 83.2188 153.078 83.5547 153.195C83.8984 153.312 84.3281 153.426 84.8438 153.535C85.8125 153.738 86.6445 154 87.3398 154.32C88.043 154.633 88.582 155.039 88.957 155.539C89.332 156.031 89.5195 156.656 89.5195 157.414C89.5195 157.977 89.3984 158.492 89.1562 158.961C88.9219 159.422 88.5781 159.824 88.125 160.168C87.6719 160.504 87.1289 160.766 86.4961 160.953C85.8711 161.141 85.168 161.234 84.3867 161.234C83.2383 161.234 82.2656 161.031 81.4688 160.625C80.6719 160.211 80.0664 159.684 79.6523 159.043C79.2461 158.395 79.043 157.723 79.043 157.027H81.7734C81.8047 157.551 81.9492 157.969 82.207 158.281C82.4727 158.586 82.8008 158.809 83.1914 158.949C83.5898 159.082 84 159.148 84.4219 159.148C84.9297 159.148 85.3555 159.082 85.6992 158.949C86.043 158.809 86.3047 158.621 86.4844 158.387C86.6641 158.145 86.7539 157.871 86.7539 157.566ZM95.8125 161H92.9883V147.102C92.9883 146.156 93.1641 145.363 93.5156 144.723C93.875 144.074 94.3867 143.586 95.0508 143.258C95.7148 142.922 96.5 142.754 97.4062 142.754C97.6875 142.754 97.9648 142.773 98.2383 142.812C98.5117 142.844 98.7773 142.895 99.0352 142.965L98.9648 145.145C98.8086 145.105 98.6367 145.078 98.4492 145.062C98.2695 145.047 98.0742 145.039 97.8633 145.039C97.4336 145.039 97.0625 145.121 96.75 145.285C96.4453 145.441 96.2109 145.672 96.0469 145.977C95.8906 146.281 95.8125 146.656 95.8125 147.102V161ZM98.4258 148.32V150.383H91.043V148.32H98.4258ZM108.105 158.012V148.32H110.941V161H108.27L108.105 158.012ZM108.504 155.375L109.453 155.352C109.453 156.203 109.359 156.988 109.172 157.707C108.984 158.418 108.695 159.039 108.305 159.57C107.914 160.094 107.414 160.504 106.805 160.801C106.195 161.09 105.465 161.234 104.613 161.234C103.996 161.234 103.43 161.145 102.914 160.965C102.398 160.785 101.953 160.508 101.578 160.133C101.211 159.758 100.926 159.27 100.723 158.668C100.52 158.066 100.418 157.348 100.418 156.512V148.32H103.242V156.535C103.242 156.996 103.297 157.383 103.406 157.695C103.516 158 103.664 158.246 103.852 158.434C104.039 158.621 104.258 158.754 104.508 158.832C104.758 158.91 105.023 158.949 105.305 158.949C106.109 158.949 106.742 158.793 107.203 158.48C107.672 158.16 108.004 157.73 108.199 157.191C108.402 156.652 108.504 156.047 108.504 155.375ZM116.859 143V161H114.023V143H116.859ZM122.977 143V161H120.141V143H122.977ZM129.75 159.617L133.195 148.32H136.219L131.133 162.934C131.016 163.246 130.863 163.586 130.676 163.953C130.488 164.32 130.242 164.668 129.938 164.996C129.641 165.332 129.27 165.602 128.824 165.805C128.379 166.016 127.84 166.121 127.207 166.121C126.957 166.121 126.715 166.098 126.48 166.051C126.254 166.012 126.039 165.969 125.836 165.922L125.824 163.766C125.902 163.773 125.996 163.781 126.105 163.789C126.223 163.797 126.316 163.801 126.387 163.801C126.855 163.801 127.246 163.742 127.559 163.625C127.871 163.516 128.125 163.336 128.32 163.086C128.523 162.836 128.695 162.5 128.836 162.078L129.75 159.617ZM127.805 148.32L130.816 157.812L131.32 160.789L129.363 161.293L124.758 148.32H127.805ZM150.738 146.211L145.641 161H142.559L148.98 143.938H150.949L150.738 146.211ZM155.004 161L149.895 146.211L149.672 143.938H151.652L158.098 161H155.004ZM154.758 154.672V157.004H145.477V154.672H154.758ZM167.461 158.375V143H170.297V161H167.73L167.461 158.375ZM159.211 154.801V154.555C159.211 153.594 159.324 152.719 159.551 151.93C159.777 151.133 160.105 150.449 160.535 149.879C160.965 149.301 161.488 148.859 162.105 148.555C162.723 148.242 163.418 148.086 164.191 148.086C164.957 148.086 165.629 148.234 166.207 148.531C166.785 148.828 167.277 149.254 167.684 149.809C168.09 150.355 168.414 151.012 168.656 151.777C168.898 152.535 169.07 153.379 169.172 154.309V155.094C169.07 156 168.898 156.828 168.656 157.578C168.414 158.328 168.09 158.977 167.684 159.523C167.277 160.07 166.781 160.492 166.195 160.789C165.617 161.086 164.941 161.234 164.168 161.234C163.402 161.234 162.711 161.074 162.094 160.754C161.484 160.434 160.965 159.984 160.535 159.406C160.105 158.828 159.777 158.148 159.551 157.367C159.324 156.578 159.211 155.723 159.211 154.801ZM162.035 154.555V154.801C162.035 155.379 162.086 155.918 162.188 156.418C162.297 156.918 162.465 157.359 162.691 157.742C162.918 158.117 163.211 158.414 163.57 158.633C163.938 158.844 164.375 158.949 164.883 158.949C165.523 158.949 166.051 158.809 166.465 158.527C166.879 158.246 167.203 157.867 167.438 157.391C167.68 156.906 167.844 156.367 167.93 155.773V153.652C167.883 153.191 167.785 152.762 167.637 152.363C167.496 151.965 167.305 151.617 167.062 151.32C166.82 151.016 166.52 150.781 166.16 150.617C165.809 150.445 165.391 150.359 164.906 150.359C164.391 150.359 163.953 150.469 163.594 150.688C163.234 150.906 162.938 151.207 162.703 151.59C162.477 151.973 162.309 152.418 162.199 152.926C162.09 153.434 162.035 153.977 162.035 154.555ZM180.984 158.375V143H183.82V161H181.254L180.984 158.375ZM172.734 154.801V154.555C172.734 153.594 172.848 152.719 173.074 151.93C173.301 151.133 173.629 150.449 174.059 149.879C174.488 149.301 175.012 148.859 175.629 148.555C176.246 148.242 176.941 148.086 177.715 148.086C178.48 148.086 179.152 148.234 179.73 148.531C180.309 148.828 180.801 149.254 181.207 149.809C181.613 150.355 181.938 151.012 182.18 151.777C182.422 152.535 182.594 153.379 182.695 154.309V155.094C182.594 156 182.422 156.828 182.18 157.578C181.938 158.328 181.613 158.977 181.207 159.523C180.801 160.07 180.305 160.492 179.719 160.789C179.141 161.086 178.465 161.234 177.691 161.234C176.926 161.234 176.234 161.074 175.617 160.754C175.008 160.434 174.488 159.984 174.059 159.406C173.629 158.828 173.301 158.148 173.074 157.367C172.848 156.578 172.734 155.723 172.734 154.801ZM175.559 154.555V154.801C175.559 155.379 175.609 155.918 175.711 156.418C175.82 156.918 175.988 157.359 176.215 157.742C176.441 158.117 176.734 158.414 177.094 158.633C177.461 158.844 177.898 158.949 178.406 158.949C179.047 158.949 179.574 158.809 179.988 158.527C180.402 158.246 180.727 157.867 180.961 157.391C181.203 156.906 181.367 156.367 181.453 155.773V153.652C181.406 153.191 181.309 152.762 181.16 152.363C181.02 151.965 180.828 151.617 180.586 151.32C180.344 151.016 180.043 150.781 179.684 150.617C179.332 150.445 178.914 150.359 178.43 150.359C177.914 150.359 177.477 150.469 177.117 150.688C176.758 150.906 176.461 151.207 176.227 151.59C176 151.973 175.832 152.418 175.723 152.926C175.613 153.434 175.559 153.977 175.559 154.555ZM192.363 161.234C191.426 161.234 190.578 161.082 189.82 160.777C189.07 160.465 188.43 160.031 187.898 159.477C187.375 158.922 186.973 158.27 186.691 157.52C186.41 156.77 186.27 155.961 186.27 155.094V154.625C186.27 153.633 186.414 152.734 186.703 151.93C186.992 151.125 187.395 150.438 187.91 149.867C188.426 149.289 189.035 148.848 189.738 148.543C190.441 148.238 191.203 148.086 192.023 148.086C192.93 148.086 193.723 148.238 194.402 148.543C195.082 148.848 195.645 149.277 196.09 149.832C196.543 150.379 196.879 151.031 197.098 151.789C197.324 152.547 197.438 153.383 197.438 154.297V155.504H187.641V153.477H194.648V153.254C194.633 152.746 194.531 152.27 194.344 151.824C194.164 151.379 193.887 151.02 193.512 150.746C193.137 150.473 192.637 150.336 192.012 150.336C191.543 150.336 191.125 150.438 190.758 150.641C190.398 150.836 190.098 151.121 189.855 151.496C189.613 151.871 189.426 152.324 189.293 152.855C189.168 153.379 189.105 153.969 189.105 154.625V155.094C189.105 155.648 189.18 156.164 189.328 156.641C189.484 157.109 189.711 157.52 190.008 157.871C190.305 158.223 190.664 158.5 191.086 158.703C191.508 158.898 191.988 158.996 192.527 158.996C193.207 158.996 193.812 158.859 194.344 158.586C194.875 158.312 195.336 157.926 195.727 157.426L197.215 158.867C196.941 159.266 196.586 159.648 196.148 160.016C195.711 160.375 195.176 160.668 194.543 160.895C193.918 161.121 193.191 161.234 192.363 161.234ZM207.375 158.375V143H210.211V161H207.645L207.375 158.375ZM199.125 154.801V154.555C199.125 153.594 199.238 152.719 199.465 151.93C199.691 151.133 200.02 150.449 200.449 149.879C200.879 149.301 201.402 148.859 202.02 148.555C202.637 148.242 203.332 148.086 204.105 148.086C204.871 148.086 205.543 148.234 206.121 148.531C206.699 148.828 207.191 149.254 207.598 149.809C208.004 150.355 208.328 151.012 208.57 151.777C208.812 152.535 208.984 153.379 209.086 154.309V155.094C208.984 156 208.812 156.828 208.57 157.578C208.328 158.328 208.004 158.977 207.598 159.523C207.191 160.07 206.695 160.492 206.109 160.789C205.531 161.086 204.855 161.234 204.082 161.234C203.316 161.234 202.625 161.074 202.008 160.754C201.398 160.434 200.879 159.984 200.449 159.406C200.02 158.828 199.691 158.148 199.465 157.367C199.238 156.578 199.125 155.723 199.125 154.801ZM201.949 154.555V154.801C201.949 155.379 202 155.918 202.102 156.418C202.211 156.918 202.379 157.359 202.605 157.742C202.832 158.117 203.125 158.414 203.484 158.633C203.852 158.844 204.289 158.949 204.797 158.949C205.438 158.949 205.965 158.809 206.379 158.527C206.793 158.246 207.117 157.867 207.352 157.391C207.594 156.906 207.758 156.367 207.844 155.773V153.652C207.797 153.191 207.699 152.762 207.551 152.363C207.41 151.965 207.219 151.617 206.977 151.32C206.734 151.016 206.434 150.781 206.074 150.617C205.723 150.445 205.305 150.359 204.82 150.359C204.305 150.359 203.867 150.469 203.508 150.688C203.148 150.906 202.852 151.207 202.617 151.59C202.391 151.973 202.223 152.418 202.113 152.926C202.004 153.434 201.949 153.977 201.949 154.555ZM228.996 143.938H231.926V155.34C231.926 156.637 231.645 157.723 231.082 158.598C230.52 159.473 229.754 160.133 228.785 160.578C227.824 161.016 226.75 161.234 225.562 161.234C224.336 161.234 223.242 161.016 222.281 160.578C221.32 160.133 220.562 159.473 220.008 158.598C219.461 157.723 219.188 156.637 219.188 155.34V143.938H222.117V155.34C222.117 156.16 222.258 156.836 222.539 157.367C222.82 157.891 223.219 158.277 223.734 158.527C224.25 158.777 224.859 158.902 225.562 158.902C226.266 158.902 226.871 158.777 227.379 158.527C227.895 158.277 228.293 157.891 228.574 157.367C228.855 156.836 228.996 156.16 228.996 155.34V143.938ZM237.645 151.027V161H234.82V148.32H237.48L237.645 151.027ZM237.141 154.191L236.227 154.18C236.234 153.281 236.359 152.457 236.602 151.707C236.852 150.957 237.195 150.312 237.633 149.773C238.078 149.234 238.609 148.82 239.227 148.531C239.844 148.234 240.531 148.086 241.289 148.086C241.898 148.086 242.449 148.172 242.941 148.344C243.441 148.508 243.867 148.777 244.219 149.152C244.578 149.527 244.852 150.016 245.039 150.617C245.227 151.211 245.32 151.941 245.32 152.809V161H242.484V152.797C242.484 152.188 242.395 151.707 242.215 151.355C242.043 150.996 241.789 150.742 241.453 150.594C241.125 150.438 240.715 150.359 240.223 150.359C239.738 150.359 239.305 150.461 238.922 150.664C238.539 150.867 238.215 151.145 237.949 151.496C237.691 151.848 237.492 152.254 237.352 152.715C237.211 153.176 237.141 153.668 237.141 154.191ZM251.227 148.32V161H248.391V148.32H251.227ZM248.203 144.992C248.203 144.562 248.344 144.207 248.625 143.926C248.914 143.637 249.312 143.492 249.82 143.492C250.32 143.492 250.715 143.637 251.004 143.926C251.293 144.207 251.438 144.562 251.438 144.992C251.438 145.414 251.293 145.766 251.004 146.047C250.715 146.328 250.32 146.469 249.82 146.469C249.312 146.469 248.914 146.328 248.625 146.047C248.344 145.766 248.203 145.414 248.203 144.992ZM258.445 158.762L261.551 148.32H264.48L260.074 161H258.246L258.445 158.762ZM256.066 148.32L259.23 158.809L259.383 161H257.555L253.125 148.32H256.066ZM271.652 161.234C270.715 161.234 269.867 161.082 269.109 160.777C268.359 160.465 267.719 160.031 267.188 159.477C266.664 158.922 266.262 158.27 265.98 157.52C265.699 156.77 265.559 155.961 265.559 155.094V154.625C265.559 153.633 265.703 152.734 265.992 151.93C266.281 151.125 266.684 150.438 267.199 149.867C267.715 149.289 268.324 148.848 269.027 148.543C269.73 148.238 270.492 148.086 271.312 148.086C272.219 148.086 273.012 148.238 273.691 148.543C274.371 148.848 274.934 149.277 275.379 149.832C275.832 150.379 276.168 151.031 276.387 151.789C276.613 152.547 276.727 153.383 276.727 154.297V155.504H266.93V153.477H273.938V153.254C273.922 152.746 273.82 152.27 273.633 151.824C273.453 151.379 273.176 151.02 272.801 150.746C272.426 150.473 271.926 150.336 271.301 150.336C270.832 150.336 270.414 150.438 270.047 150.641C269.688 150.836 269.387 151.121 269.145 151.496C268.902 151.871 268.715 152.324 268.582 152.855C268.457 153.379 268.395 153.969 268.395 154.625V155.094C268.395 155.648 268.469 156.164 268.617 156.641C268.773 157.109 269 157.52 269.297 157.871C269.594 158.223 269.953 158.5 270.375 158.703C270.797 158.898 271.277 158.996 271.816 158.996C272.496 158.996 273.102 158.859 273.633 158.586C274.164 158.312 274.625 157.926 275.016 157.426L276.504 158.867C276.23 159.266 275.875 159.648 275.438 160.016C275 160.375 274.465 160.668 273.832 160.895C273.207 161.121 272.48 161.234 271.652 161.234ZM281.766 150.734V161H278.941V148.32H281.637L281.766 150.734ZM285.645 148.238L285.621 150.863C285.449 150.832 285.262 150.809 285.059 150.793C284.863 150.777 284.668 150.77 284.473 150.77C283.988 150.77 283.562 150.84 283.195 150.98C282.828 151.113 282.52 151.309 282.27 151.566C282.027 151.816 281.84 152.121 281.707 152.48C281.574 152.84 281.496 153.242 281.473 153.688L280.828 153.734C280.828 152.938 280.906 152.199 281.062 151.52C281.219 150.84 281.453 150.242 281.766 149.727C282.086 149.211 282.484 148.809 282.961 148.52C283.445 148.23 284.004 148.086 284.637 148.086C284.809 148.086 284.992 148.102 285.188 148.133C285.391 148.164 285.543 148.199 285.645 148.238ZM294.527 157.566C294.527 157.285 294.457 157.031 294.316 156.805C294.176 156.57 293.906 156.359 293.508 156.172C293.117 155.984 292.539 155.812 291.773 155.656C291.102 155.508 290.484 155.332 289.922 155.129C289.367 154.918 288.891 154.664 288.492 154.367C288.094 154.07 287.785 153.719 287.566 153.312C287.348 152.906 287.238 152.438 287.238 151.906C287.238 151.391 287.352 150.902 287.578 150.441C287.805 149.98 288.129 149.574 288.551 149.223C288.973 148.871 289.484 148.594 290.086 148.391C290.695 148.188 291.375 148.086 292.125 148.086C293.188 148.086 294.098 148.266 294.855 148.625C295.621 148.977 296.207 149.457 296.613 150.066C297.02 150.668 297.223 151.348 297.223 152.105H294.398C294.398 151.77 294.312 151.457 294.141 151.168C293.977 150.871 293.727 150.633 293.391 150.453C293.055 150.266 292.633 150.172 292.125 150.172C291.641 150.172 291.238 150.25 290.918 150.406C290.605 150.555 290.371 150.75 290.215 150.992C290.066 151.234 289.992 151.5 289.992 151.789C289.992 152 290.031 152.191 290.109 152.363C290.195 152.527 290.336 152.68 290.531 152.82C290.727 152.953 290.992 153.078 291.328 153.195C291.672 153.312 292.102 153.426 292.617 153.535C293.586 153.738 294.418 154 295.113 154.32C295.816 154.633 296.355 155.039 296.73 155.539C297.105 156.031 297.293 156.656 297.293 157.414C297.293 157.977 297.172 158.492 296.93 158.961C296.695 159.422 296.352 159.824 295.898 160.168C295.445 160.504 294.902 160.766 294.27 160.953C293.645 161.141 292.941 161.234 292.16 161.234C291.012 161.234 290.039 161.031 289.242 160.625C288.445 160.211 287.84 159.684 287.426 159.043C287.02 158.395 286.816 157.723 286.816 157.027H289.547C289.578 157.551 289.723 157.969 289.98 158.281C290.246 158.586 290.574 158.809 290.965 158.949C291.363 159.082 291.773 159.148 292.195 159.148C292.703 159.148 293.129 159.082 293.473 158.949C293.816 158.809 294.078 158.621 294.258 158.387C294.438 158.145 294.527 157.871 294.527 157.566ZM302.789 148.32V161H299.953V148.32H302.789ZM299.766 144.992C299.766 144.562 299.906 144.207 300.188 143.926C300.477 143.637 300.875 143.492 301.383 143.492C301.883 143.492 302.277 143.637 302.566 143.926C302.855 144.207 303 144.562 303 144.992C303 145.414 302.855 145.766 302.566 146.047C302.277 146.328 301.883 146.469 301.383 146.469C300.875 146.469 300.477 146.328 300.188 146.047C299.906 145.766 299.766 145.414 299.766 144.992ZM311.695 148.32V150.383H304.547V148.32H311.695ZM306.609 145.215H309.434V157.496C309.434 157.887 309.488 158.188 309.598 158.398C309.715 158.602 309.875 158.738 310.078 158.809C310.281 158.879 310.52 158.914 310.793 158.914C310.988 158.914 311.176 158.902 311.355 158.879C311.535 158.855 311.68 158.832 311.789 158.809L311.801 160.965C311.566 161.035 311.293 161.098 310.98 161.152C310.676 161.207 310.324 161.234 309.926 161.234C309.277 161.234 308.703 161.121 308.203 160.895C307.703 160.66 307.312 160.281 307.031 159.758C306.75 159.234 306.609 158.539 306.609 157.672V145.215ZM317.555 159.617L321 148.32H324.023L318.938 162.934C318.82 163.246 318.668 163.586 318.48 163.953C318.293 164.32 318.047 164.668 317.742 164.996C317.445 165.332 317.074 165.602 316.629 165.805C316.184 166.016 315.645 166.121 315.012 166.121C314.762 166.121 314.52 166.098 314.285 166.051C314.059 166.012 313.844 165.969 313.641 165.922L313.629 163.766C313.707 163.773 313.801 163.781 313.91 163.789C314.027 163.797 314.121 163.801 314.191 163.801C314.66 163.801 315.051 163.742 315.363 163.625C315.676 163.516 315.93 163.336 316.125 163.086C316.328 162.836 316.5 162.5 316.641 162.078L317.555 159.617ZM315.609 148.32L318.621 157.812L319.125 160.789L317.168 161.293L312.562 148.32H315.609ZM336.855 161H333.211L333.234 158.668H336.855C337.91 158.668 338.793 158.438 339.504 157.977C340.223 157.516 340.762 156.855 341.121 155.996C341.488 155.137 341.672 154.113 341.672 152.926V152C341.672 151.078 341.566 150.262 341.355 149.551C341.152 148.84 340.848 148.242 340.441 147.758C340.043 147.273 339.551 146.906 338.965 146.656C338.387 146.406 337.719 146.281 336.961 146.281H333.141V143.938H336.961C338.094 143.938 339.129 144.129 340.066 144.512C341.004 144.887 341.812 145.43 342.492 146.141C343.18 146.852 343.707 147.703 344.074 148.695C344.441 149.688 344.625 150.797 344.625 152.023V152.926C344.625 154.152 344.441 155.262 344.074 156.254C343.707 157.246 343.18 158.098 342.492 158.809C341.805 159.512 340.984 160.055 340.031 160.438C339.086 160.812 338.027 161 336.855 161ZM334.84 143.938V161H331.898V143.938H334.84ZM352.887 161.234C351.949 161.234 351.102 161.082 350.344 160.777C349.594 160.465 348.953 160.031 348.422 159.477C347.898 158.922 347.496 158.27 347.215 157.52C346.934 156.77 346.793 155.961 346.793 155.094V154.625C346.793 153.633 346.938 152.734 347.227 151.93C347.516 151.125 347.918 150.438 348.434 149.867C348.949 149.289 349.559 148.848 350.262 148.543C350.965 148.238 351.727 148.086 352.547 148.086C353.453 148.086 354.246 148.238 354.926 148.543C355.605 148.848 356.168 149.277 356.613 149.832C357.066 150.379 357.402 151.031 357.621 151.789C357.848 152.547 357.961 153.383 357.961 154.297V155.504H348.164V153.477H355.172V153.254C355.156 152.746 355.055 152.27 354.867 151.824C354.688 151.379 354.41 151.02 354.035 150.746C353.66 150.473 353.16 150.336 352.535 150.336C352.066 150.336 351.648 150.438 351.281 150.641C350.922 150.836 350.621 151.121 350.379 151.496C350.137 151.871 349.949 152.324 349.816 152.855C349.691 153.379 349.629 153.969 349.629 154.625V155.094C349.629 155.648 349.703 156.164 349.852 156.641C350.008 157.109 350.234 157.52 350.531 157.871C350.828 158.223 351.188 158.5 351.609 158.703C352.031 158.898 352.512 158.996 353.051 158.996C353.73 158.996 354.336 158.859 354.867 158.586C355.398 158.312 355.859 157.926 356.25 157.426L357.738 158.867C357.465 159.266 357.109 159.648 356.672 160.016C356.234 160.375 355.699 160.668 355.066 160.895C354.441 161.121 353.715 161.234 352.887 161.234ZM365.977 148.32V150.383H358.828V148.32H365.977ZM360.891 145.215H363.715V157.496C363.715 157.887 363.77 158.188 363.879 158.398C363.996 158.602 364.156 158.738 364.359 158.809C364.562 158.879 364.801 158.914 365.074 158.914C365.27 158.914 365.457 158.902 365.637 158.879C365.816 158.855 365.961 158.832 366.07 158.809L366.082 160.965C365.848 161.035 365.574 161.098 365.262 161.152C364.957 161.207 364.605 161.234 364.207 161.234C363.559 161.234 362.984 161.121 362.484 160.895C361.984 160.66 361.594 160.281 361.312 159.758C361.031 159.234 360.891 158.539 360.891 157.672V145.215ZM375.305 158.457V152.41C375.305 151.957 375.223 151.566 375.059 151.238C374.895 150.91 374.645 150.656 374.309 150.477C373.98 150.297 373.566 150.207 373.066 150.207C372.605 150.207 372.207 150.285 371.871 150.441C371.535 150.598 371.273 150.809 371.086 151.074C370.898 151.34 370.805 151.641 370.805 151.977H367.992C367.992 151.477 368.113 150.992 368.355 150.523C368.598 150.055 368.949 149.637 369.41 149.27C369.871 148.902 370.422 148.613 371.062 148.402C371.703 148.191 372.422 148.086 373.219 148.086C374.172 148.086 375.016 148.246 375.75 148.566C376.492 148.887 377.074 149.371 377.496 150.02C377.926 150.66 378.141 151.465 378.141 152.434V158.07C378.141 158.648 378.18 159.168 378.258 159.629C378.344 160.082 378.465 160.477 378.621 160.812V161H375.727C375.594 160.695 375.488 160.309 375.41 159.84C375.34 159.363 375.305 158.902 375.305 158.457ZM375.715 153.289L375.738 155.035H373.711C373.188 155.035 372.727 155.086 372.328 155.188C371.93 155.281 371.598 155.422 371.332 155.609C371.066 155.797 370.867 156.023 370.734 156.289C370.602 156.555 370.535 156.855 370.535 157.191C370.535 157.527 370.613 157.836 370.77 158.117C370.926 158.391 371.152 158.605 371.449 158.762C371.754 158.918 372.121 158.996 372.551 158.996C373.129 158.996 373.633 158.879 374.062 158.645C374.5 158.402 374.844 158.109 375.094 157.766C375.344 157.414 375.477 157.082 375.492 156.77L376.406 158.023C376.312 158.344 376.152 158.688 375.926 159.055C375.699 159.422 375.402 159.773 375.035 160.109C374.676 160.438 374.242 160.707 373.734 160.918C373.234 161.129 372.656 161.234 372 161.234C371.172 161.234 370.434 161.07 369.785 160.742C369.137 160.406 368.629 159.957 368.262 159.395C367.895 158.824 367.711 158.18 367.711 157.461C367.711 156.789 367.836 156.195 368.086 155.68C368.344 155.156 368.719 154.719 369.211 154.367C369.711 154.016 370.32 153.75 371.039 153.57C371.758 153.383 372.578 153.289 373.5 153.289H375.715ZM384.117 148.32V161H381.281V148.32H384.117ZM381.094 144.992C381.094 144.562 381.234 144.207 381.516 143.926C381.805 143.637 382.203 143.492 382.711 143.492C383.211 143.492 383.605 143.637 383.895 143.926C384.184 144.207 384.328 144.562 384.328 144.992C384.328 145.414 384.184 145.766 383.895 146.047C383.605 146.328 383.211 146.469 382.711 146.469C382.203 146.469 381.805 146.328 381.516 146.047C381.234 145.766 381.094 145.414 381.094 144.992ZM390.234 143V161H387.398V143H390.234ZM400.441 157.566C400.441 157.285 400.371 157.031 400.23 156.805C400.09 156.57 399.82 156.359 399.422 156.172C399.031 155.984 398.453 155.812 397.688 155.656C397.016 155.508 396.398 155.332 395.836 155.129C395.281 154.918 394.805 154.664 394.406 154.367C394.008 154.07 393.699 153.719 393.48 153.312C393.262 152.906 393.152 152.438 393.152 151.906C393.152 151.391 393.266 150.902 393.492 150.441C393.719 149.98 394.043 149.574 394.465 149.223C394.887 148.871 395.398 148.594 396 148.391C396.609 148.188 397.289 148.086 398.039 148.086C399.102 148.086 400.012 148.266 400.77 148.625C401.535 148.977 402.121 149.457 402.527 150.066C402.934 150.668 403.137 151.348 403.137 152.105H400.312C400.312 151.77 400.227 151.457 400.055 151.168C399.891 150.871 399.641 150.633 399.305 150.453C398.969 150.266 398.547 150.172 398.039 150.172C397.555 150.172 397.152 150.25 396.832 150.406C396.52 150.555 396.285 150.75 396.129 150.992C395.98 151.234 395.906 151.5 395.906 151.789C395.906 152 395.945 152.191 396.023 152.363C396.109 152.527 396.25 152.68 396.445 152.82C396.641 152.953 396.906 153.078 397.242 153.195C397.586 153.312 398.016 153.426 398.531 153.535C399.5 153.738 400.332 154 401.027 154.32C401.73 154.633 402.27 155.039 402.645 155.539C403.02 156.031 403.207 156.656 403.207 157.414C403.207 157.977 403.086 158.492 402.844 158.961C402.609 159.422 402.266 159.824 401.812 160.168C401.359 160.504 400.816 160.766 400.184 160.953C399.559 161.141 398.855 161.234 398.074 161.234C396.926 161.234 395.953 161.031 395.156 160.625C394.359 160.211 393.754 159.684 393.34 159.043C392.934 158.395 392.73 157.723 392.73 157.027H395.461C395.492 157.551 395.637 157.969 395.895 158.281C396.16 158.586 396.488 158.809 396.879 158.949C397.277 159.082 397.688 159.148 398.109 159.148C398.617 159.148 399.043 159.082 399.387 158.949C399.73 158.809 399.992 158.621 400.172 158.387C400.352 158.145 400.441 157.871 400.441 157.566Z" fill="black"/>
<path d="M65.7285 187.336L68.4971 192.69L71.2729 187.336H72.877L69.2002 194.016V198H67.7866V194.016L64.1099 187.336H65.7285ZM73.1992 194.125V193.957C73.1992 193.386 73.2822 192.856 73.4482 192.368C73.6143 191.875 73.8535 191.447 74.166 191.086C74.4785 190.72 74.8569 190.437 75.3013 190.236C75.7456 190.031 76.2437 189.929 76.7954 189.929C77.3521 189.929 77.8525 190.031 78.2969 190.236C78.7461 190.437 79.127 190.72 79.4395 191.086C79.7568 191.447 79.9985 191.875 80.1646 192.368C80.3306 192.856 80.4136 193.386 80.4136 193.957V194.125C80.4136 194.697 80.3306 195.227 80.1646 195.715C79.9985 196.203 79.7568 196.63 79.4395 196.997C79.127 197.358 78.7485 197.641 78.3042 197.846C77.8647 198.046 77.3667 198.146 76.8101 198.146C76.2534 198.146 75.7529 198.046 75.3086 197.846C74.8643 197.641 74.4834 197.358 74.166 196.997C73.8535 196.63 73.6143 196.203 73.4482 195.715C73.2822 195.227 73.1992 194.697 73.1992 194.125ZM74.5542 193.957V194.125C74.5542 194.521 74.6006 194.895 74.6934 195.246C74.7861 195.593 74.9253 195.9 75.1108 196.169C75.3013 196.438 75.5381 196.65 75.8213 196.806C76.1045 196.958 76.4341 197.033 76.8101 197.033C77.1812 197.033 77.5059 196.958 77.7842 196.806C78.0674 196.65 78.3018 196.438 78.4873 196.169C78.6729 195.9 78.812 195.593 78.9048 195.246C79.0024 194.895 79.0513 194.521 79.0513 194.125V193.957C79.0513 193.566 79.0024 193.198 78.9048 192.851C78.812 192.5 78.6704 192.189 78.48 191.921C78.2944 191.647 78.0601 191.433 77.7769 191.276C77.4985 191.12 77.1714 191.042 76.7954 191.042C76.4243 191.042 76.0972 191.12 75.814 191.276C75.5356 191.433 75.3013 191.647 75.1108 191.921C74.9253 192.189 74.7861 192.5 74.6934 192.851C74.6006 193.198 74.5542 193.566 74.5542 193.957ZM86.9614 196.169V190.075H88.3237V198H87.0273L86.9614 196.169ZM87.2178 194.499L87.7817 194.484C87.7817 195.012 87.7256 195.5 87.6133 195.949C87.5059 196.394 87.3301 196.779 87.0859 197.106C86.8418 197.434 86.522 197.69 86.1265 197.875C85.731 198.056 85.25 198.146 84.6836 198.146C84.2979 198.146 83.9438 198.09 83.6216 197.978C83.3042 197.866 83.0308 197.692 82.8013 197.458C82.5718 197.224 82.3936 196.918 82.2666 196.542C82.1445 196.167 82.0835 195.715 82.0835 195.188V190.075H83.4385V195.202C83.4385 195.559 83.4775 195.854 83.5557 196.088C83.6387 196.318 83.7485 196.501 83.8853 196.638C84.0269 196.77 84.1831 196.862 84.354 196.916C84.5298 196.97 84.7104 196.997 84.896 196.997C85.4722 196.997 85.9287 196.887 86.2656 196.667C86.6025 196.442 86.8442 196.142 86.9907 195.766C87.1421 195.385 87.2178 194.963 87.2178 194.499ZM95.4648 186.75V198H94.1099V186.75H95.4648ZM95.1426 193.737L94.5786 193.715C94.5835 193.173 94.6641 192.673 94.8203 192.214C94.9766 191.75 95.1963 191.347 95.4795 191.005C95.7627 190.664 96.0996 190.4 96.4902 190.214C96.8857 190.024 97.3228 189.929 97.8013 189.929C98.1919 189.929 98.5435 189.982 98.856 190.09C99.1685 190.192 99.4346 190.358 99.6543 190.588C99.8789 190.817 100.05 191.115 100.167 191.481C100.284 191.843 100.343 192.285 100.343 192.807V198H98.9805V192.792C98.9805 192.377 98.9194 192.045 98.7974 191.796C98.6753 191.542 98.4971 191.359 98.2627 191.247C98.0283 191.13 97.7402 191.071 97.3984 191.071C97.0615 191.071 96.7539 191.142 96.4756 191.284C96.2021 191.425 95.9653 191.621 95.7651 191.87C95.5698 192.119 95.416 192.404 95.3037 192.727C95.1963 193.044 95.1426 193.381 95.1426 193.737ZM107.044 196.645V192.565C107.044 192.253 106.981 191.982 106.854 191.752C106.732 191.518 106.546 191.337 106.297 191.21C106.048 191.083 105.741 191.02 105.375 191.02C105.033 191.02 104.732 191.079 104.474 191.196C104.22 191.313 104.02 191.467 103.873 191.657C103.731 191.848 103.661 192.053 103.661 192.272H102.306C102.306 191.989 102.379 191.708 102.525 191.43C102.672 191.152 102.882 190.9 103.155 190.676C103.434 190.446 103.766 190.266 104.151 190.134C104.542 189.997 104.977 189.929 105.455 189.929C106.031 189.929 106.539 190.026 106.979 190.222C107.423 190.417 107.77 190.712 108.019 191.108C108.272 191.499 108.399 191.989 108.399 192.58V196.271C108.399 196.535 108.421 196.816 108.465 197.114C108.514 197.412 108.585 197.668 108.678 197.883V198H107.264C107.196 197.844 107.142 197.636 107.103 197.377C107.064 197.114 107.044 196.87 107.044 196.645ZM107.279 193.195L107.293 194.147H105.924C105.538 194.147 105.194 194.179 104.891 194.243C104.588 194.301 104.334 194.392 104.129 194.514C103.924 194.636 103.768 194.79 103.661 194.975C103.553 195.156 103.5 195.368 103.5 195.612C103.5 195.861 103.556 196.088 103.668 196.293C103.78 196.499 103.949 196.662 104.173 196.784C104.403 196.901 104.684 196.96 105.016 196.96C105.431 196.96 105.797 196.872 106.114 196.696C106.432 196.521 106.683 196.306 106.869 196.052C107.059 195.798 107.162 195.551 107.176 195.312L107.755 195.964C107.721 196.169 107.628 196.396 107.477 196.645C107.325 196.894 107.123 197.133 106.869 197.363C106.62 197.587 106.322 197.775 105.975 197.927C105.633 198.073 105.248 198.146 104.818 198.146C104.281 198.146 103.81 198.042 103.404 197.832C103.004 197.622 102.691 197.341 102.467 196.989C102.247 196.633 102.137 196.235 102.137 195.795C102.137 195.371 102.22 194.997 102.386 194.675C102.552 194.348 102.792 194.077 103.104 193.862C103.417 193.642 103.792 193.476 104.232 193.364C104.671 193.251 105.162 193.195 105.704 193.195H107.279ZM112.823 196.777L114.991 190.075H116.375L113.526 198H112.618L112.823 196.777ZM111.014 190.075L113.248 196.813L113.402 198H112.494L109.623 190.075H111.014ZM120.865 198.146C120.313 198.146 119.813 198.054 119.364 197.868C118.919 197.678 118.536 197.412 118.214 197.07C117.896 196.728 117.652 196.323 117.481 195.854C117.311 195.385 117.225 194.873 117.225 194.316V194.008C117.225 193.364 117.32 192.79 117.511 192.287C117.701 191.779 117.96 191.35 118.287 190.998C118.614 190.646 118.985 190.38 119.4 190.2C119.815 190.019 120.245 189.929 120.689 189.929C121.256 189.929 121.744 190.026 122.154 190.222C122.569 190.417 122.909 190.69 123.172 191.042C123.436 191.389 123.631 191.799 123.758 192.272C123.885 192.741 123.949 193.254 123.949 193.811V194.418H118.031V193.312H122.594V193.21C122.574 192.858 122.501 192.517 122.374 192.185C122.252 191.853 122.057 191.579 121.788 191.364C121.52 191.149 121.153 191.042 120.689 191.042C120.382 191.042 120.099 191.108 119.84 191.24C119.581 191.367 119.359 191.557 119.173 191.811C118.988 192.065 118.844 192.375 118.741 192.741C118.639 193.107 118.587 193.53 118.587 194.008V194.316C118.587 194.692 118.639 195.046 118.741 195.378C118.849 195.705 119.002 195.993 119.203 196.242C119.408 196.491 119.654 196.687 119.942 196.828C120.235 196.97 120.567 197.041 120.938 197.041C121.417 197.041 121.822 196.943 122.154 196.748C122.486 196.552 122.777 196.291 123.026 195.964L123.846 196.616C123.675 196.875 123.458 197.121 123.194 197.355C122.931 197.59 122.606 197.78 122.22 197.927C121.839 198.073 121.388 198.146 120.865 198.146ZM132.423 197.033C132.745 197.033 133.043 196.967 133.316 196.835C133.59 196.704 133.814 196.523 133.99 196.293C134.166 196.059 134.266 195.793 134.291 195.495H135.58C135.555 195.964 135.396 196.401 135.104 196.806C134.815 197.207 134.437 197.531 133.968 197.78C133.5 198.024 132.984 198.146 132.423 198.146C131.827 198.146 131.307 198.042 130.863 197.832C130.423 197.622 130.057 197.333 129.764 196.967C129.476 196.601 129.259 196.181 129.112 195.708C128.971 195.229 128.9 194.724 128.9 194.191V193.884C128.9 193.352 128.971 192.849 129.112 192.375C129.259 191.896 129.476 191.474 129.764 191.108C130.057 190.742 130.423 190.454 130.863 190.244C131.307 190.034 131.827 189.929 132.423 189.929C133.043 189.929 133.585 190.056 134.049 190.31C134.513 190.559 134.876 190.9 135.14 191.335C135.409 191.765 135.555 192.253 135.58 192.8H134.291C134.266 192.473 134.173 192.177 134.012 191.914C133.856 191.65 133.641 191.44 133.368 191.284C133.099 191.123 132.784 191.042 132.423 191.042C132.008 191.042 131.659 191.125 131.375 191.291C131.097 191.452 130.875 191.672 130.709 191.95C130.548 192.224 130.431 192.529 130.357 192.866C130.289 193.198 130.255 193.537 130.255 193.884V194.191C130.255 194.538 130.289 194.88 130.357 195.217C130.426 195.554 130.541 195.859 130.702 196.132C130.868 196.406 131.09 196.625 131.368 196.792C131.651 196.953 132.003 197.033 132.423 197.033ZM138.458 191.32V198H137.103V190.075H138.421L138.458 191.32ZM140.934 190.031L140.926 191.291C140.814 191.267 140.707 191.252 140.604 191.247C140.506 191.237 140.394 191.232 140.267 191.232C139.955 191.232 139.679 191.281 139.439 191.379C139.2 191.477 138.998 191.613 138.832 191.789C138.666 191.965 138.534 192.175 138.436 192.419C138.343 192.658 138.282 192.922 138.253 193.21L137.872 193.43C137.872 192.951 137.918 192.502 138.011 192.082C138.109 191.662 138.258 191.291 138.458 190.969C138.658 190.642 138.912 190.388 139.22 190.207C139.532 190.021 139.903 189.929 140.333 189.929C140.431 189.929 140.543 189.941 140.67 189.965C140.797 189.985 140.885 190.007 140.934 190.031ZM145.328 198.146C144.776 198.146 144.276 198.054 143.827 197.868C143.382 197.678 142.999 197.412 142.677 197.07C142.359 196.728 142.115 196.323 141.944 195.854C141.773 195.385 141.688 194.873 141.688 194.316V194.008C141.688 193.364 141.783 192.79 141.974 192.287C142.164 191.779 142.423 191.35 142.75 190.998C143.077 190.646 143.448 190.38 143.863 190.2C144.278 190.019 144.708 189.929 145.152 189.929C145.719 189.929 146.207 190.026 146.617 190.222C147.032 190.417 147.372 190.69 147.635 191.042C147.899 191.389 148.094 191.799 148.221 192.272C148.348 192.741 148.412 193.254 148.412 193.811V194.418H142.494V193.312H147.057V193.21C147.037 192.858 146.964 192.517 146.837 192.185C146.715 191.853 146.52 191.579 146.251 191.364C145.982 191.149 145.616 191.042 145.152 191.042C144.845 191.042 144.562 191.108 144.303 191.24C144.044 191.367 143.822 191.557 143.636 191.811C143.451 192.065 143.307 192.375 143.204 192.741C143.102 193.107 143.05 193.53 143.05 194.008V194.316C143.05 194.692 143.102 195.046 143.204 195.378C143.312 195.705 143.465 195.993 143.666 196.242C143.871 196.491 144.117 196.687 144.405 196.828C144.698 196.97 145.03 197.041 145.401 197.041C145.88 197.041 146.285 196.943 146.617 196.748C146.949 196.552 147.24 196.291 147.489 195.964L148.309 196.616C148.138 196.875 147.921 197.121 147.657 197.355C147.394 197.59 147.069 197.78 146.683 197.927C146.302 198.073 145.851 198.146 145.328 198.146ZM154.667 196.645V192.565C154.667 192.253 154.603 191.982 154.476 191.752C154.354 191.518 154.168 191.337 153.919 191.21C153.67 191.083 153.363 191.02 152.997 191.02C152.655 191.02 152.354 191.079 152.096 191.196C151.842 191.313 151.642 191.467 151.495 191.657C151.354 191.848 151.283 192.053 151.283 192.272H149.928C149.928 191.989 150.001 191.708 150.147 191.43C150.294 191.152 150.504 190.9 150.777 190.676C151.056 190.446 151.388 190.266 151.773 190.134C152.164 189.997 152.599 189.929 153.077 189.929C153.653 189.929 154.161 190.026 154.601 190.222C155.045 190.417 155.392 190.712 155.641 191.108C155.895 191.499 156.021 191.989 156.021 192.58V196.271C156.021 196.535 156.043 196.816 156.087 197.114C156.136 197.412 156.207 197.668 156.3 197.883V198H154.886C154.818 197.844 154.764 197.636 154.725 197.377C154.686 197.114 154.667 196.87 154.667 196.645ZM154.901 193.195L154.916 194.147H153.546C153.16 194.147 152.816 194.179 152.513 194.243C152.21 194.301 151.957 194.392 151.751 194.514C151.546 194.636 151.39 194.79 151.283 194.975C151.175 195.156 151.122 195.368 151.122 195.612C151.122 195.861 151.178 196.088 151.29 196.293C151.402 196.499 151.571 196.662 151.795 196.784C152.025 196.901 152.306 196.96 152.638 196.96C153.053 196.96 153.419 196.872 153.736 196.696C154.054 196.521 154.305 196.306 154.491 196.052C154.681 195.798 154.784 195.551 154.798 195.312L155.377 195.964C155.343 196.169 155.25 196.396 155.099 196.645C154.947 196.894 154.745 197.133 154.491 197.363C154.242 197.587 153.944 197.775 153.597 197.927C153.255 198.073 152.87 198.146 152.44 198.146C151.903 198.146 151.432 198.042 151.026 197.832C150.626 197.622 150.313 197.341 150.089 196.989C149.869 196.633 149.759 196.235 149.759 195.795C149.759 195.371 149.842 194.997 150.008 194.675C150.174 194.348 150.414 194.077 150.726 193.862C151.039 193.642 151.415 193.476 151.854 193.364C152.293 193.251 152.784 193.195 153.326 193.195H154.901ZM161.471 190.075V191.115H157.186V190.075H161.471ZM158.636 188.149H159.991V196.037C159.991 196.306 160.033 196.508 160.116 196.645C160.199 196.782 160.306 196.872 160.438 196.916C160.57 196.96 160.711 196.982 160.863 196.982C160.975 196.982 161.092 196.972 161.214 196.953C161.341 196.928 161.437 196.909 161.5 196.894L161.507 198C161.4 198.034 161.258 198.066 161.083 198.095C160.912 198.129 160.704 198.146 160.46 198.146C160.128 198.146 159.823 198.081 159.544 197.949C159.266 197.817 159.044 197.597 158.878 197.29C158.717 196.977 158.636 196.557 158.636 196.03V188.149ZM166.349 198.146C165.797 198.146 165.296 198.054 164.847 197.868C164.403 197.678 164.02 197.412 163.697 197.07C163.38 196.728 163.136 196.323 162.965 195.854C162.794 195.385 162.708 194.873 162.708 194.316V194.008C162.708 193.364 162.804 192.79 162.994 192.287C163.185 191.779 163.443 191.35 163.771 190.998C164.098 190.646 164.469 190.38 164.884 190.2C165.299 190.019 165.729 189.929 166.173 189.929C166.739 189.929 167.228 190.026 167.638 190.222C168.053 190.417 168.392 190.69 168.656 191.042C168.919 191.389 169.115 191.799 169.242 192.272C169.369 192.741 169.432 193.254 169.432 193.811V194.418H163.514V193.312H168.077V193.21C168.058 192.858 167.984 192.517 167.857 192.185C167.735 191.853 167.54 191.579 167.271 191.364C167.003 191.149 166.637 191.042 166.173 191.042C165.865 191.042 165.582 191.108 165.323 191.24C165.064 191.367 164.842 191.557 164.657 191.811C164.471 192.065 164.327 192.375 164.225 192.741C164.122 193.107 164.071 193.53 164.071 194.008V194.316C164.071 194.692 164.122 195.046 164.225 195.378C164.332 195.705 164.486 195.993 164.686 196.242C164.891 196.491 165.138 196.687 165.426 196.828C165.719 196.97 166.051 197.041 166.422 197.041C166.9 197.041 167.306 196.943 167.638 196.748C167.97 196.552 168.26 196.291 168.509 195.964L169.33 196.616C169.159 196.875 168.941 197.121 168.678 197.355C168.414 197.59 168.089 197.78 167.704 197.927C167.323 198.073 166.871 198.146 166.349 198.146ZM176.009 196.462V186.75H177.372V198H176.126L176.009 196.462ZM170.677 194.125V193.972C170.677 193.366 170.75 192.817 170.897 192.324C171.048 191.826 171.261 191.398 171.534 191.042C171.812 190.686 172.142 190.412 172.523 190.222C172.909 190.026 173.338 189.929 173.812 189.929C174.31 189.929 174.745 190.017 175.116 190.192C175.492 190.363 175.809 190.615 176.068 190.947C176.332 191.274 176.539 191.669 176.69 192.133C176.842 192.597 176.947 193.122 177.005 193.708V194.382C176.952 194.963 176.847 195.485 176.69 195.949C176.539 196.413 176.332 196.809 176.068 197.136C175.809 197.463 175.492 197.714 175.116 197.89C174.74 198.061 174.3 198.146 173.797 198.146C173.333 198.146 172.909 198.046 172.523 197.846C172.142 197.646 171.812 197.365 171.534 197.004C171.261 196.643 171.048 196.218 170.897 195.729C170.75 195.236 170.677 194.702 170.677 194.125ZM172.04 193.972V194.125C172.04 194.521 172.079 194.892 172.157 195.239C172.24 195.585 172.367 195.891 172.538 196.154C172.708 196.418 172.926 196.625 173.189 196.777C173.453 196.923 173.768 196.997 174.134 196.997C174.583 196.997 174.952 196.901 175.24 196.711C175.533 196.521 175.768 196.269 175.943 195.957C176.119 195.644 176.256 195.305 176.354 194.938V193.173C176.295 192.905 176.209 192.646 176.097 192.397C175.99 192.143 175.848 191.918 175.672 191.723C175.501 191.523 175.289 191.364 175.035 191.247C174.786 191.13 174.491 191.071 174.149 191.071C173.778 191.071 173.458 191.149 173.189 191.306C172.926 191.457 172.708 191.667 172.538 191.936C172.367 192.199 172.24 192.507 172.157 192.858C172.079 193.205 172.04 193.576 172.04 193.972ZM187.354 188.281L183.824 198H182.381L186.446 187.336H187.376L187.354 188.281ZM190.313 198L186.776 188.281L186.754 187.336H187.684L191.764 198H190.313ZM190.13 194.052V195.209H184.139V194.052H190.13ZM203.014 187.336H204.42V194.55C204.42 195.351 204.242 196.018 203.885 196.55C203.529 197.082 203.055 197.482 202.464 197.751C201.878 198.015 201.241 198.146 200.553 198.146C199.83 198.146 199.176 198.015 198.59 197.751C198.009 197.482 197.547 197.082 197.206 196.55C196.869 196.018 196.7 195.351 196.7 194.55V187.336H198.099V194.55C198.099 195.107 198.202 195.566 198.407 195.927C198.612 196.289 198.897 196.557 199.264 196.733C199.635 196.909 200.064 196.997 200.553 196.997C201.046 196.997 201.476 196.909 201.842 196.733C202.213 196.557 202.501 196.289 202.706 195.927C202.911 195.566 203.014 195.107 203.014 194.55V187.336ZM211.048 195.898C211.048 195.703 211.004 195.522 210.917 195.356C210.833 195.185 210.66 195.031 210.396 194.895C210.138 194.753 209.747 194.631 209.225 194.528C208.785 194.436 208.387 194.326 208.031 194.199C207.679 194.072 207.379 193.918 207.13 193.737C206.886 193.557 206.698 193.344 206.566 193.1C206.434 192.856 206.368 192.57 206.368 192.243C206.368 191.931 206.437 191.635 206.573 191.357C206.715 191.079 206.913 190.832 207.167 190.617C207.425 190.402 207.735 190.234 208.097 190.112C208.458 189.99 208.861 189.929 209.305 189.929C209.94 189.929 210.482 190.041 210.931 190.266C211.38 190.49 211.725 190.791 211.964 191.167C212.203 191.538 212.323 191.95 212.323 192.404H210.968C210.968 192.185 210.902 191.972 210.77 191.767C210.643 191.557 210.455 191.384 210.206 191.247C209.962 191.11 209.662 191.042 209.305 191.042C208.929 191.042 208.624 191.101 208.39 191.218C208.16 191.33 207.992 191.474 207.884 191.65C207.782 191.826 207.73 192.011 207.73 192.207C207.73 192.353 207.755 192.485 207.804 192.602C207.857 192.714 207.95 192.819 208.082 192.917C208.214 193.01 208.399 193.098 208.639 193.181C208.878 193.264 209.183 193.347 209.554 193.43C210.204 193.576 210.738 193.752 211.158 193.957C211.578 194.162 211.891 194.414 212.096 194.711C212.301 195.009 212.403 195.371 212.403 195.795C212.403 196.142 212.33 196.459 212.184 196.748C212.042 197.036 211.834 197.285 211.561 197.495C211.292 197.7 210.97 197.861 210.594 197.978C210.223 198.09 209.806 198.146 209.342 198.146C208.644 198.146 208.053 198.022 207.569 197.773C207.086 197.524 206.72 197.202 206.471 196.806C206.222 196.411 206.097 195.993 206.097 195.554H207.459C207.479 195.925 207.586 196.22 207.782 196.44C207.977 196.655 208.216 196.809 208.5 196.901C208.783 196.989 209.063 197.033 209.342 197.033C209.713 197.033 210.023 196.984 210.272 196.887C210.526 196.789 210.719 196.655 210.851 196.484C210.982 196.313 211.048 196.118 211.048 195.898ZM217.472 198.146C216.92 198.146 216.419 198.054 215.97 197.868C215.526 197.678 215.143 197.412 214.82 197.07C214.503 196.728 214.259 196.323 214.088 195.854C213.917 195.385 213.832 194.873 213.832 194.316V194.008C213.832 193.364 213.927 192.79 214.117 192.287C214.308 191.779 214.566 191.35 214.894 190.998C215.221 190.646 215.592 190.38 216.007 190.2C216.422 190.019 216.852 189.929 217.296 189.929C217.862 189.929 218.351 190.026 218.761 190.222C219.176 190.417 219.515 190.69 219.779 191.042C220.042 191.389 220.238 191.799 220.365 192.272C220.492 192.741 220.555 193.254 220.555 193.811V194.418H214.637V193.312H219.2V193.21C219.181 192.858 219.107 192.517 218.98 192.185C218.858 191.853 218.663 191.579 218.395 191.364C218.126 191.149 217.76 191.042 217.296 191.042C216.988 191.042 216.705 191.108 216.446 191.24C216.188 191.367 215.965 191.557 215.78 191.811C215.594 192.065 215.45 192.375 215.348 192.741C215.245 193.107 215.194 193.53 215.194 194.008V194.316C215.194 194.692 215.245 195.046 215.348 195.378C215.455 195.705 215.609 195.993 215.809 196.242C216.014 196.491 216.261 196.687 216.549 196.828C216.842 196.97 217.174 197.041 217.545 197.041C218.023 197.041 218.429 196.943 218.761 196.748C219.093 196.552 219.383 196.291 219.632 195.964L220.453 196.616C220.282 196.875 220.064 197.121 219.801 197.355C219.537 197.59 219.212 197.78 218.827 197.927C218.446 198.073 217.994 198.146 217.472 198.146ZM223.492 191.32V198H222.137V190.075H223.456L223.492 191.32ZM225.968 190.031L225.96 191.291C225.848 191.267 225.741 191.252 225.638 191.247C225.541 191.237 225.428 191.232 225.301 191.232C224.989 191.232 224.713 191.281 224.474 191.379C224.234 191.477 224.032 191.613 223.866 191.789C223.7 191.965 223.568 192.175 223.47 192.419C223.377 192.658 223.316 192.922 223.287 193.21L222.906 193.43C222.906 192.951 222.953 192.502 223.045 192.082C223.143 191.662 223.292 191.291 223.492 190.969C223.692 190.642 223.946 190.388 224.254 190.207C224.566 190.021 224.938 189.929 225.367 189.929C225.465 189.929 225.577 189.941 225.704 189.965C225.831 189.985 225.919 190.007 225.968 190.031ZM235.555 195.898C235.555 195.703 235.511 195.522 235.423 195.356C235.34 195.185 235.167 195.031 234.903 194.895C234.645 194.753 234.254 194.631 233.731 194.528C233.292 194.436 232.894 194.326 232.538 194.199C232.186 194.072 231.886 193.918 231.637 193.737C231.393 193.557 231.205 193.344 231.073 193.1C230.941 192.856 230.875 192.57 230.875 192.243C230.875 191.931 230.943 191.635 231.08 191.357C231.222 191.079 231.419 190.832 231.673 190.617C231.932 190.402 232.242 190.234 232.604 190.112C232.965 189.99 233.368 189.929 233.812 189.929C234.447 189.929 234.989 190.041 235.438 190.266C235.887 190.49 236.231 190.791 236.471 191.167C236.71 191.538 236.83 191.95 236.83 192.404H235.475C235.475 192.185 235.409 191.972 235.277 191.767C235.15 191.557 234.962 191.384 234.713 191.247C234.469 191.11 234.168 191.042 233.812 191.042C233.436 191.042 233.131 191.101 232.896 191.218C232.667 191.33 232.499 191.474 232.391 191.65C232.289 191.826 232.237 192.011 232.237 192.207C232.237 192.353 232.262 192.485 232.311 192.602C232.364 192.714 232.457 192.819 232.589 192.917C232.721 193.01 232.906 193.098 233.146 193.181C233.385 193.264 233.69 193.347 234.061 193.43C234.71 193.576 235.245 193.752 235.665 193.957C236.085 194.162 236.397 194.414 236.603 194.711C236.808 195.009 236.91 195.371 236.91 195.795C236.91 196.142 236.837 196.459 236.69 196.748C236.549 197.036 236.341 197.285 236.068 197.495C235.799 197.7 235.477 197.861 235.101 197.978C234.73 198.09 234.312 198.146 233.849 198.146C233.15 198.146 232.56 198.022 232.076 197.773C231.593 197.524 231.227 197.202 230.978 196.806C230.729 196.411 230.604 195.993 230.604 195.554H231.966C231.986 195.925 232.093 196.22 232.289 196.44C232.484 196.655 232.723 196.809 233.006 196.901C233.29 196.989 233.57 197.033 233.849 197.033C234.22 197.033 234.53 196.984 234.779 196.887C235.033 196.789 235.226 196.655 235.357 196.484C235.489 196.313 235.555 196.118 235.555 195.898ZM243.539 196.169V190.075H244.901V198H243.604L243.539 196.169ZM243.795 194.499L244.359 194.484C244.359 195.012 244.303 195.5 244.19 195.949C244.083 196.394 243.907 196.779 243.663 197.106C243.419 197.434 243.099 197.69 242.704 197.875C242.308 198.056 241.827 198.146 241.261 198.146C240.875 198.146 240.521 198.09 240.199 197.978C239.881 197.866 239.608 197.692 239.378 197.458C239.149 197.224 238.971 196.918 238.844 196.542C238.722 196.167 238.661 195.715 238.661 195.188V190.075H240.016V195.202C240.016 195.559 240.055 195.854 240.133 196.088C240.216 196.318 240.326 196.501 240.462 196.638C240.604 196.77 240.76 196.862 240.931 196.916C241.107 196.97 241.288 196.997 241.473 196.997C242.049 196.997 242.506 196.887 242.843 196.667C243.18 196.442 243.421 196.142 243.568 195.766C243.719 195.385 243.795 194.963 243.795 194.499ZM250.138 197.033C250.46 197.033 250.758 196.967 251.031 196.835C251.305 196.704 251.529 196.523 251.705 196.293C251.881 196.059 251.981 195.793 252.005 195.495H253.294C253.27 195.964 253.111 196.401 252.818 196.806C252.53 197.207 252.152 197.531 251.683 197.78C251.214 198.024 250.699 198.146 250.138 198.146C249.542 198.146 249.022 198.042 248.578 197.832C248.138 197.622 247.772 197.333 247.479 196.967C247.191 196.601 246.974 196.181 246.827 195.708C246.686 195.229 246.615 194.724 246.615 194.191V193.884C246.615 193.352 246.686 192.849 246.827 192.375C246.974 191.896 247.191 191.474 247.479 191.108C247.772 190.742 248.138 190.454 248.578 190.244C249.022 190.034 249.542 189.929 250.138 189.929C250.758 189.929 251.3 190.056 251.764 190.31C252.228 190.559 252.591 190.9 252.855 191.335C253.124 191.765 253.27 192.253 253.294 192.8H252.005C251.981 192.473 251.888 192.177 251.727 191.914C251.571 191.65 251.356 191.44 251.083 191.284C250.814 191.123 250.499 191.042 250.138 191.042C249.723 191.042 249.374 191.125 249.09 191.291C248.812 191.452 248.59 191.672 248.424 191.95C248.263 192.224 248.146 192.529 248.072 192.866C248.004 193.198 247.97 193.537 247.97 193.884V194.191C247.97 194.538 248.004 194.88 248.072 195.217C248.141 195.554 248.255 195.859 248.417 196.132C248.583 196.406 248.805 196.625 249.083 196.792C249.366 196.953 249.718 197.033 250.138 197.033ZM257.989 197.033C258.312 197.033 258.609 196.967 258.883 196.835C259.156 196.704 259.381 196.523 259.557 196.293C259.732 196.059 259.833 195.793 259.857 195.495H261.146C261.122 195.964 260.963 196.401 260.67 196.806C260.382 197.207 260.003 197.531 259.535 197.78C259.066 198.024 258.551 198.146 257.989 198.146C257.394 198.146 256.874 198.042 256.429 197.832C255.99 197.622 255.624 197.333 255.331 196.967C255.042 196.601 254.825 196.181 254.679 195.708C254.537 195.229 254.466 194.724 254.466 194.191V193.884C254.466 193.352 254.537 192.849 254.679 192.375C254.825 191.896 255.042 191.474 255.331 191.108C255.624 190.742 255.99 190.454 256.429 190.244C256.874 190.034 257.394 189.929 257.989 189.929C258.609 189.929 259.151 190.056 259.615 190.31C260.079 190.559 260.443 190.9 260.707 191.335C260.975 191.765 261.122 192.253 261.146 192.8H259.857C259.833 192.473 259.74 192.177 259.579 191.914C259.422 191.65 259.208 191.44 258.934 191.284C258.666 191.123 258.351 191.042 257.989 191.042C257.574 191.042 257.225 191.125 256.942 191.291C256.664 191.452 256.441 191.672 256.275 191.95C256.114 192.224 255.997 192.529 255.924 192.866C255.855 193.198 255.821 193.537 255.821 193.884V194.191C255.821 194.538 255.855 194.88 255.924 195.217C255.992 195.554 256.107 195.859 256.268 196.132C256.434 196.406 256.656 196.625 256.935 196.792C257.218 196.953 257.569 197.033 257.989 197.033ZM265.958 198.146C265.406 198.146 264.906 198.054 264.457 197.868C264.012 197.678 263.629 197.412 263.307 197.07C262.989 196.728 262.745 196.323 262.574 195.854C262.403 195.385 262.318 194.873 262.318 194.316V194.008C262.318 193.364 262.413 192.79 262.604 192.287C262.794 191.779 263.053 191.35 263.38 190.998C263.707 190.646 264.078 190.38 264.493 190.2C264.908 190.019 265.338 189.929 265.782 189.929C266.349 189.929 266.837 190.026 267.247 190.222C267.662 190.417 268.001 190.69 268.265 191.042C268.529 191.389 268.724 191.799 268.851 192.272C268.978 192.741 269.042 193.254 269.042 193.811V194.418H263.124V193.312H267.687V193.21C267.667 192.858 267.594 192.517 267.467 192.185C267.345 191.853 267.149 191.579 266.881 191.364C266.612 191.149 266.246 191.042 265.782 191.042C265.475 191.042 265.191 191.108 264.933 191.24C264.674 191.367 264.452 191.557 264.266 191.811C264.081 192.065 263.937 192.375 263.834 192.741C263.731 193.107 263.68 193.53 263.68 194.008V194.316C263.68 194.692 263.731 195.046 263.834 195.378C263.941 195.705 264.095 195.993 264.295 196.242C264.5 196.491 264.747 196.687 265.035 196.828C265.328 196.97 265.66 197.041 266.031 197.041C266.51 197.041 266.915 196.943 267.247 196.748C267.579 196.552 267.87 196.291 268.119 195.964L268.939 196.616C268.768 196.875 268.551 197.121 268.287 197.355C268.023 197.59 267.699 197.78 267.313 197.927C266.932 198.073 266.48 198.146 265.958 198.146ZM275.238 195.898C275.238 195.703 275.194 195.522 275.106 195.356C275.023 195.185 274.85 195.031 274.586 194.895C274.327 194.753 273.937 194.631 273.414 194.528C272.975 194.436 272.577 194.326 272.22 194.199C271.869 194.072 271.568 193.918 271.319 193.737C271.075 193.557 270.887 193.344 270.755 193.1C270.624 192.856 270.558 192.57 270.558 192.243C270.558 191.931 270.626 191.635 270.763 191.357C270.904 191.079 271.102 190.832 271.356 190.617C271.615 190.402 271.925 190.234 272.286 190.112C272.647 189.99 273.05 189.929 273.495 189.929C274.129 189.929 274.671 190.041 275.121 190.266C275.57 190.49 275.914 190.791 276.153 191.167C276.393 191.538 276.512 191.95 276.512 192.404H275.157C275.157 192.185 275.091 191.972 274.959 191.767C274.833 191.557 274.645 191.384 274.396 191.247C274.151 191.11 273.851 191.042 273.495 191.042C273.119 191.042 272.813 191.101 272.579 191.218C272.35 191.33 272.181 191.474 272.074 191.65C271.971 191.826 271.92 192.011 271.92 192.207C271.92 192.353 271.944 192.485 271.993 192.602C272.047 192.714 272.14 192.819 272.271 192.917C272.403 193.01 272.589 193.098 272.828 193.181C273.067 193.264 273.373 193.347 273.744 193.43C274.393 193.576 274.928 193.752 275.348 193.957C275.768 194.162 276.08 194.414 276.285 194.711C276.49 195.009 276.593 195.371 276.593 195.795C276.593 196.142 276.52 196.459 276.373 196.748C276.231 197.036 276.024 197.285 275.75 197.495C275.482 197.7 275.16 197.861 274.784 197.978C274.413 198.09 273.995 198.146 273.531 198.146C272.833 198.146 272.242 198.022 271.759 197.773C271.275 197.524 270.909 197.202 270.66 196.806C270.411 196.411 270.287 195.993 270.287 195.554H271.649C271.668 195.925 271.776 196.22 271.971 196.44C272.167 196.655 272.406 196.809 272.689 196.901C272.972 196.989 273.253 197.033 273.531 197.033C273.902 197.033 274.212 196.984 274.461 196.887C274.715 196.789 274.908 196.655 275.04 196.484C275.172 196.313 275.238 196.118 275.238 195.898ZM282.987 195.898C282.987 195.703 282.943 195.522 282.855 195.356C282.772 195.185 282.599 195.031 282.335 194.895C282.076 194.753 281.686 194.631 281.163 194.528C280.724 194.436 280.326 194.326 279.969 194.199C279.618 194.072 279.317 193.918 279.068 193.737C278.824 193.557 278.636 193.344 278.504 193.1C278.373 192.856 278.307 192.57 278.307 192.243C278.307 191.931 278.375 191.635 278.512 191.357C278.653 191.079 278.851 190.832 279.105 190.617C279.364 190.402 279.674 190.234 280.035 190.112C280.396 189.99 280.799 189.929 281.244 189.929C281.878 189.929 282.42 190.041 282.87 190.266C283.319 190.49 283.663 190.791 283.902 191.167C284.142 191.538 284.261 191.95 284.261 192.404H282.906C282.906 192.185 282.84 191.972 282.708 191.767C282.582 191.557 282.394 191.384 282.145 191.247C281.9 191.11 281.6 191.042 281.244 191.042C280.868 191.042 280.562 191.101 280.328 191.218C280.099 191.33 279.93 191.474 279.823 191.65C279.72 191.826 279.669 192.011 279.669 192.207C279.669 192.353 279.693 192.485 279.742 192.602C279.796 192.714 279.889 192.819 280.021 192.917C280.152 193.01 280.338 193.098 280.577 193.181C280.816 193.264 281.122 193.347 281.493 193.43C282.142 193.576 282.677 193.752 283.097 193.957C283.517 194.162 283.829 194.414 284.034 194.711C284.239 195.009 284.342 195.371 284.342 195.795C284.342 196.142 284.269 196.459 284.122 196.748C283.98 197.036 283.773 197.285 283.5 197.495C283.231 197.7 282.909 197.861 282.533 197.978C282.162 198.09 281.744 198.146 281.28 198.146C280.582 198.146 279.991 198.022 279.508 197.773C279.024 197.524 278.658 197.202 278.409 196.806C278.16 196.411 278.036 195.993 278.036 195.554H279.398C279.417 195.925 279.525 196.22 279.72 196.44C279.916 196.655 280.155 196.809 280.438 196.901C280.721 196.989 281.002 197.033 281.28 197.033C281.651 197.033 281.961 196.984 282.21 196.887C282.464 196.789 282.657 196.655 282.789 196.484C282.921 196.313 282.987 196.118 282.987 195.898ZM288.143 198H286.788V189.24C286.788 188.669 286.891 188.188 287.096 187.797C287.306 187.402 287.606 187.104 287.997 186.904C288.387 186.699 288.851 186.596 289.388 186.596C289.544 186.596 289.701 186.606 289.857 186.625C290.018 186.645 290.174 186.674 290.326 186.713L290.252 187.819C290.15 187.795 290.033 187.778 289.901 187.768C289.774 187.758 289.647 187.753 289.52 187.753C289.232 187.753 288.983 187.812 288.773 187.929C288.568 188.042 288.412 188.208 288.304 188.427C288.197 188.647 288.143 188.918 288.143 189.24V198ZM289.828 190.075V191.115H285.536V190.075H289.828ZM296.185 196.169V190.075H297.547V198H296.251L296.185 196.169ZM296.441 194.499L297.005 194.484C297.005 195.012 296.949 195.5 296.837 195.949C296.729 196.394 296.554 196.779 296.31 197.106C296.065 197.434 295.746 197.69 295.35 197.875C294.955 198.056 294.474 198.146 293.907 198.146C293.521 198.146 293.167 198.09 292.845 197.978C292.528 197.866 292.254 197.692 292.025 197.458C291.795 197.224 291.617 196.918 291.49 196.542C291.368 196.167 291.307 195.715 291.307 195.188V190.075H292.662V195.202C292.662 195.559 292.701 195.854 292.779 196.088C292.862 196.318 292.972 196.501 293.109 196.638C293.25 196.77 293.407 196.862 293.578 196.916C293.753 196.97 293.934 196.997 294.12 196.997C294.696 196.997 295.152 196.887 295.489 196.667C295.826 196.442 296.068 196.142 296.214 195.766C296.366 195.385 296.441 194.963 296.441 194.499ZM301.085 186.75V198H299.723V186.75H301.085ZM304.732 186.75V198H303.37V186.75H304.732ZM309.134 197.18L311.339 190.075H312.789L309.61 199.223C309.537 199.418 309.439 199.628 309.317 199.853C309.2 200.083 309.049 200.3 308.863 200.505C308.678 200.71 308.453 200.876 308.189 201.003C307.931 201.135 307.621 201.201 307.259 201.201C307.152 201.201 307.015 201.186 306.849 201.157C306.683 201.127 306.566 201.103 306.498 201.083L306.49 199.985C306.529 199.99 306.59 199.995 306.673 200C306.761 200.009 306.822 200.014 306.856 200.014C307.164 200.014 307.425 199.973 307.64 199.89C307.855 199.812 308.036 199.677 308.182 199.487C308.333 199.301 308.463 199.045 308.57 198.718L309.134 197.18ZM307.516 190.075L309.574 196.228L309.925 197.656L308.951 198.154L306.036 190.075H307.516ZM313.243 197.282C313.243 197.053 313.314 196.86 313.456 196.704C313.602 196.542 313.812 196.462 314.085 196.462C314.359 196.462 314.566 196.542 314.708 196.704C314.854 196.86 314.928 197.053 314.928 197.282C314.928 197.507 314.854 197.697 314.708 197.854C314.566 198.01 314.359 198.088 314.085 198.088C313.812 198.088 313.602 198.01 313.456 197.854C313.314 197.697 313.243 197.507 313.243 197.282Z" fill="#24364C"/>
<path d="M203.867 7C203.367 11.5 208.367 12 212.367 12C212.867 12 214.267 12.3 215.867 13.5C217.867 15 218.367 19.5 215.867 20C213.367 20.5 208.367 24 208.867 27C209.367 30 212.367 33.5 215.867 33.5H261.867C265.867 33.5 267.867 30 267.867 27C267.867 24 264.367 21.5 261.867 21.5C259.367 21.5 237.867 22 234.367 21.5C230.867 21 230.367 18.5 230.367 16.5C230.367 14.5 231.867 12 234.367 12H243.367C247.867 12 248.367 10 249.367 7C250.367 4 246.367 0 243.367 0H210.367C204.867 0 204.367 2.5 203.867 7Z" fill="#F2FFE1"/>
<path d="M69.3675 95.5H88.3675H107.367C115.367 95.5 111.867 85 109.367 85C106.867 85 99.3672 85.5 96.3672 85C93.3672 84.5 90.8672 81 90.8672 78C90.8672 75 94.8672 72 96.3672 72H146.867C149.867 72 153.867 72.5 155.367 72C156.867 71.5 160.367 66.5 161.867 63.5C163.367 60.5 159.367 59 158.367 59H148.367C144.367 59 139.867 56.5 140.367 52C140.867 47.5 146.367 46.5 148.367 46.5H155.367H203.867H222.367H283.367C287.867 46.5 290.367 50.5 290.367 54C290.367 57.5 285.367 59 283.367 59H245.867C244.367 59 242.867 62 242.867 63.5C242.867 65 244.867 68.5 247.367 68.5H266.867C271.867 68.5 275.867 72 275.867 77C275.867 82 267.367 82.5 265.367 82.5H244.867H222.367L212.367 97.5C207.367 105 189.367 108.5 181.367 108.5H99.3672C89.3673 108.167 68.6675 107.5 65.8675 107.5C62.3675 107.5 61.3675 101.5 62.3675 99C63.3675 96.5 65.8675 95.5 69.3675 95.5Z" fill="#F2FFE1"/>
<ellipse cx="308.367" cy="55.5" rx="7" ry="5.5" fill="#F2FFE1"/>
<ellipse cx="262.367" cy="9.5" rx="7" ry="5.5" fill="#F2FFE1"/>
<path fill-rule="evenodd" clip-rule="evenodd" d="M216.273 54.708L215.403 55.185L217.201 59.6925L217.204 59.6999C218.917 63.619 219.867 67.9477 219.867 72.4997C219.867 90.1728 205.54 104.5 187.867 104.5C177.399 104.5 168.106 99.4743 162.267 91.7025L161.367 91L160.367 90L160.393 91.1578L160.867 93L161.637 94.0762C167.286 105.018 178.703 112.5 191.867 112.5C210.645 112.5 225.867 97.2774 225.867 78.4997C225.867 69.9543 222.714 62.1442 217.509 56.1712L216.273 54.708Z" fill="#BEE882"/>
<path d="M220.867 59.107C219.179 55.5973 216.88 52.3077 213.97 49.3977C200.107 35.5341 177.629 35.5341 163.766 49.3977C161.506 51.6577 159.614 54.1467 158.091 56.7899L155.66 61.9246C154.342 65.4123 153.592 69.0659 153.411 72.7422" stroke="white" stroke-width="2"/>
<path d="M178.627 38.2144C181.574 37.4224 184.671 37 187.867 37C207.473 37 223.367 52.8939 223.367 72.5C223.367 80.318 220.84 87.5458 216.558 93.411M152.367 72.5C152.367 58.0938 160.948 45.6918 173.278 40.1267M159.176 93.411C165.633 102.254 176.079 108 187.867 108C193.837 108 199.464 106.526 204.401 103.923M214.182 96.3288C212.688 97.9774 211.041 99.485 209.264 100.829" stroke="#51AF01" stroke-width="2"/>
<circle cx="187.867" cy="72.5" r="32.5" fill="#E4FCCA"/>
<path d="M162.467 24C162.467 27.3689 159.736 30.1 156.367 30.1C152.998 30.1 150.267 27.3689 150.267 24C150.267 20.6311 152.998 17.9 156.367 17.9C159.736 17.9 162.467 20.6311 162.467 24Z" stroke="#51AF01" stroke-width="1.8"/>
<path d="M250.617 93.5C250.617 96.1234 248.491 98.25 245.867 98.25C243.244 98.25 241.117 96.1234 241.117 93.5C241.117 90.8766 243.244 88.75 245.867 88.75C248.491 88.75 250.617 90.8766 250.617 93.5Z" stroke="#BEE882" stroke-width="1.5"/>
<path d="M169.867 69.5L182.867 81L202.867 61" stroke="white" stroke-width="2"/>
<path d="M169.867 71.5L182.867 83L202.867 63" stroke="#51AF01" stroke-width="1.8"/>
<rect x="313.367" y="37" width="1" height="9" fill="#51AF01"/>
<rect x="318.367" y="41" width="1" height="9" transform="rotate(90 318.367 41)" fill="#51AF01"/>
</svg>
