<svg width="39" height="42" viewBox="0 0 39 42" fill="none" xmlns="http://www.w3.org/2000/svg">
<path d="M11.3756 36.3366C9.1559 36.1569 7.04683 35.2425 5.34951 33.7237C3.65219 32.205 2.4534 30.1598 1.92433 27.88C1.39526 25.6002 1.56295 23.2024 2.40346 21.0291C3.24397 18.8557 4.71432 17.018 6.60456 15.7781C7.00677 12.4718 8.53799 9.43328 10.9117 7.23121C13.2853 5.02915 16.3388 3.81445 19.5006 3.81445C22.6624 3.81445 25.7158 5.02915 28.0895 7.23121C30.4631 9.43328 31.9944 12.4718 32.3966 15.7781C34.2868 17.018 35.7572 18.8557 36.5977 21.0291C37.4382 23.2024 37.6059 25.6002 37.0768 27.88C36.5477 30.1598 35.3489 32.205 33.6516 33.7237C31.9543 35.2425 29.8452 36.1569 27.6256 36.3366V36.3692H11.3756V36.3366ZM21.1256 22.6635H26.0006L19.5006 14.0975L13.0006 22.6635H17.8756V29.5163H21.1256V22.6635Z" fill="#21B873"/>
</svg>
