<svg width="24" height="24" viewBox="0 0 24 24" fill="none" xmlns="http://www.w3.org/2000/svg">
<g clip-path="url(#clip0_6027_11894)">
<path d="M22.4132 11.6862C20.1665 7.53286 16.2265 5.01953 11.8665 5.01953C7.50648 5.01953 3.55982 7.53286 1.33315 11.6862L1.14648 11.9995L1.31982 12.3195C3.56648 16.4729 7.50648 18.9862 11.8665 18.9862C16.2265 18.9862 20.1732 16.5062 22.4132 12.3195L22.5865 11.9995L22.4132 11.6862ZM11.8665 17.6195C8.11315 17.6195 4.66648 15.5262 2.66648 11.9995C4.66648 8.47286 8.11315 6.37953 11.8665 6.37953C15.6198 6.37953 19.0265 8.47953 21.0598 11.9995C19.0265 15.5262 15.6132 17.6195 11.8665 17.6195Z" fill="#BDBDBD"/>
<path d="M12.06 7.44543C11.1561 7.45203 10.2744 7.72635 9.52626 8.23375C8.77815 8.74116 8.19719 9.45887 7.85676 10.2963C7.51632 11.1337 7.43167 12.0531 7.61351 12.9386C7.79534 13.8241 8.23551 14.6358 8.8784 15.2713C9.5213 15.9067 10.3381 16.3374 11.2256 16.5089C12.1131 16.6804 13.0316 16.5851 13.865 16.2349C14.6983 15.8847 15.4092 15.2955 15.9079 14.5415C16.4065 13.7875 16.6706 12.9027 16.6666 11.9988C16.664 11.3971 16.5427 10.8018 16.3096 10.247C16.0765 9.69231 15.7363 9.18903 15.3083 8.76604C14.8804 8.34305 14.3731 8.00866 13.8157 7.78205C13.2583 7.55543 12.6617 7.44104 12.06 7.44543ZM12.06 15.2588C11.4215 15.2522 10.7992 15.0571 10.2712 14.698C9.74321 14.3389 9.33311 13.8318 9.09241 13.2403C8.8517 12.6489 8.79111 11.9995 8.91825 11.3738C9.0454 10.7481 9.3546 10.1738 9.80703 9.72324C10.2595 9.27266 10.8349 8.9658 11.4612 8.84121C12.0875 8.71662 12.7366 8.77986 13.327 9.02298C13.9174 9.2661 14.4229 9.67826 14.7798 10.2077C15.1368 10.7371 15.3293 11.3602 15.3333 11.9988C15.3351 12.4285 15.2515 12.8543 15.0875 13.2515C14.9235 13.6487 14.6822 14.0094 14.3777 14.3126C14.0732 14.6159 13.7116 14.8557 13.3137 15.0181C12.9158 15.1805 12.4897 15.2623 12.06 15.2588Z" fill="#BDBDBD"/>
</g>
<defs>
<clipPath id="clip0_6027_11894">
<rect width="24" height="24" fill="white"/>
</clipPath>
</defs>
</svg>
